<svg width="702" height="288" viewBox="0 0 702 288" fill="none" xmlns="http://www.w3.org/2000/svg">
<path d="M578.238 40.8894C579.368 50.0772 581.24 59.1609 582.353 68.3514C582.805 72.1071 582.525 75.9658 582.412 79.801L576.139 80.6826C576.94 71.2551 574.516 62.3445 571.466 53.4158C569.285 47.0385 570.004 40.0521 569.801 33.3012C569.644 28.0134 569.934 22.6787 570.079 17.1944L576.38 16.3089C576.779 18.8786 577.231 21.4249 577.404 23.9999C577.778 29.618 577.549 35.3156 578.229 40.8959L578.238 40.8894Z" fill="#5A1FFF"/>
<path d="M559.429 30.6267C554.39 41.6949 556.676 51.5796 563.2 61.2243C566.431 65.99 565.955 71.8814 566.851 77.3147C567.102 78.8337 566.956 80.4138 566.818 81.9927L560.166 82.9276C560.105 79.8064 560.016 76.6892 560.086 73.5549C560.205 68.414 558.712 63.6427 554.549 59.4377C547.01 51.8454 546.138 43.4911 550.972 33.9849C553.349 29.3117 553.309 24.4582 554.059 19.4408L559.628 18.6581C559.988 20.9522 560.407 23.2644 560.501 25.6118C560.569 27.2413 560.17 28.9736 559.419 30.6228L559.429 30.6267Z" fill="#5A1FFF"/>
<path d="M543.568 59.5593C551.384 66.0305 550.885 73.9728 550.792 81.9163C550.787 82.6914 550.82 83.4613 550.862 84.2298L543.801 85.2221C544.699 76.0092 545.152 66.9329 535.658 59.5517C527.353 53.0962 527.786 45.4869 533.91 37.0247C536.284 33.7469 536.419 30.073 536.981 26.6045C537.234 25.0464 536.848 23.5093 536.509 21.9071L543.283 20.9552C544.582 25.6953 545.202 30.5149 541.283 35.5693C534.265 44.5974 535.195 52.6253 543.577 59.558L543.568 59.5593Z" fill="#5A1FFF"/>
<path d="M534.526 86.5256L527.92 87.4541C527.973 83.7971 528.017 80.1465 528.08 76.4882C528.157 72.1965 526.254 68.4059 522.413 65.0786C520.617 63.5275 519.062 61.8735 517.284 60.3145C511.03 54.8067 510.3 48.6763 516.045 41.7474C520.141 36.8113 521.789 31.8587 520.318 26.9092C520.066 26.0535 519.961 25.177 519.877 24.2394L526.752 23.2731C528.016 28.5698 528.479 33.8147 523.856 39.3765C517.391 47.1599 517.263 54.4505 525.345 60.3273C535.595 67.7721 535.285 77.0669 534.526 86.5256V86.5256Z" fill="#5A1FFF"/>
<path d="M331.543 115.053L325.113 115.957C320.309 110.081 314.61 104.559 308.2 99.2849C304.995 96.648 302.748 93.5741 300.211 90.6471C295.89 85.6526 299.105 80.2198 302.119 74.7728C304.576 70.3428 307.334 65.892 308.806 61.4414C309.619 58.9612 309.062 56.4721 308.767 53.9089L315.346 52.9843C316.909 58.255 315.75 63.5898 312.424 69.102C309.819 73.4253 307.042 77.7994 305.633 82.1616C304.803 84.7289 305.402 87.7109 307.276 89.8187C311.853 94.9574 317.815 99.5939 322.708 104.625C325.976 107.979 328.697 111.538 331.543 115.048L331.543 115.053Z" fill="#5A1FFF"/>
<path d="M596.818 52.9507C596.294 54.8652 596.78 56.7807 596.952 58.6768C597.532 64.9556 598.158 71.2226 598.775 77.4961L592.307 78.405C592.29 78.1475 592.264 77.8965 592.247 77.6391C591.947 73.4216 591.628 69.2015 591.375 64.9775C590.965 58.2293 590.843 51.4458 590.146 44.738C589.287 36.4084 587.973 28.1322 586.854 19.8339C586.626 18.2161 586.4 16.6036 586.164 14.9234L592.798 13.991C595.059 26.8551 600.559 39.2961 596.817 52.9455L596.818 52.9507Z" fill="#5A1FFF"/>
<path d="M347.406 112.824L340.874 113.742C337.423 109.156 334.212 104.53 328.886 100.515C323.168 96.2 318.427 91.2433 315.143 86.0289C312.465 81.7689 316.096 76.7444 318.946 72.0101C321.488 67.7804 324.012 63.4843 325.348 59.2067C326.131 56.7096 325.524 54.2063 325.197 51.6105L331.738 50.6911C333.577 55.8382 332.295 61.1744 328.946 66.6528C326.618 70.4598 324.349 74.2849 322.251 78.1179C318.846 84.3415 323.455 88.9665 328.126 93.429C331.389 96.5405 336.273 99.0209 339.309 102.207C342.511 105.56 344.87 109.234 347.417 112.833L347.406 112.824Z" fill="#5A1FFF"/>
<path d="M315.754 117.272L309.12 118.204C305.06 114.054 300.91 109.943 296.85 105.792C292.195 101.046 286.988 96.468 283.164 91.4462C279.772 87.0056 282.799 81.9174 285.686 76.9815C288.169 72.7336 290.781 68.4571 292.248 64.1716C293.136 61.5536 292.776 58.9201 292.673 56.1708L298.974 55.2853C300.331 60.5742 299.164 65.9208 295.83 71.4447C293.279 75.6809 290.51 79.9744 289.294 84.235C288.525 86.9636 289.339 90.0639 291.33 92.3303C295.93 97.5666 301.852 102.325 306.894 107.409C310.075 110.612 312.87 113.959 315.754 117.272Z" fill="#5A1FFF"/>
<path d="M487.484 84.0503C487.568 87.0727 487.43 90.1211 487.337 93.163L481.324 94.0081C480.948 92.4111 480.553 90.8064 480.786 89.1716C481.864 81.3762 478.976 74.6791 470.699 69.2328C466.358 66.379 461.613 63.5448 461.568 59.1907C461.545 57.0774 461.771 54.6532 463.471 52.6957C469.735 45.4975 473.268 38.3701 471.14 31.0942L477.738 30.167C479.747 36.266 478.199 42.4567 472.563 48.5428C466.222 55.3963 467.06 61.0872 474.399 65.912C482.092 70.9682 487.276 76.7272 487.484 84.0503V84.0503Z" fill="#5A1FFF"/>
<path d="M692.312 0.0104853L701.179 63.1041L692.757 64.2878C691.69 59.0483 690.466 53.8361 689.863 48.5366C689.376 44.2659 689.563 39.8792 690.157 35.5042C691.32 26.8375 691.392 18.4037 687.373 10.3803C685.931 7.51685 686.06 4.26297 685.779 0.923331L692.311 0.00528344L692.312 0.0104853Z" fill="#5A1FFF"/>
<path d="M679.35 38.2802C678.733 43.7723 679.265 48.9704 681.352 54.1356C682.817 57.7702 682.642 61.768 682.842 65.6812L675.494 66.7138C675.146 61.2089 674.45 55.7846 672.824 50.4008C671.156 44.8532 672.925 38.6156 673.637 32.6592C674.456 25.7755 674.904 19.0817 670.909 12.7737C669.138 9.98832 669.456 6.60175 669.231 3.25429L675.8 2.33103C677.479 7.48462 679.715 12.5705 680.233 17.8712C680.879 24.5544 680.11 31.4472 679.341 38.2815L679.35 38.2802Z" fill="#5A1FFF"/>
<path d="M503.083 81.8262C503.001 84.8772 502.994 87.9178 502.977 90.9597L496.408 91.8829C496.237 87.0373 496.398 82.1292 495.23 77.4554C494.404 74.1288 491.238 71.163 488.585 68.2256C486.57 65.9891 483.486 64.1469 481.282 61.9741C477.423 58.1826 476.487 53.8742 480.628 49.2553C486.747 42.4383 489.473 35.679 487.336 28.8128L493.868 27.8947C495.76 33.5593 495.333 39.3272 489.927 45.0946C482.909 52.5738 484.113 58.7913 491.711 64.2429C498.646 69.2147 503.284 74.7904 503.091 81.8197L503.083 81.8262Z" fill="#5A1FFF"/>
<path d="M518.84 88.7303L512.197 89.664C512.18 86.1864 512.173 82.7076 512.158 79.2353C512.146 74.5105 509.982 70.3428 505.671 66.6944C503.064 64.4827 500.518 62.2359 498.197 59.9045C494.149 55.8425 493.529 51.2297 497.743 46.3885C503.511 39.7639 505.829 33.2636 503.629 26.6821C503.621 26.6301 503.596 26.5859 503.589 26.5339L510.241 25.5989C511.961 31.3091 511.785 37.0522 506.418 43.0316C500.723 49.3752 499.785 55.6074 506.612 60.3451C518.108 68.3255 519.568 78.2416 518.84 88.7303V88.7303Z" fill="#5A1FFF"/>
<path d="M380.012 108.241L373.619 109.14C372.279 106.532 370.976 103.92 369.437 101.367C368.6 99.989 367.214 98.7304 365.72 97.5823C361.046 93.9691 356.476 90.2934 351.386 86.887C344.296 82.1545 346.453 76.3239 349.633 70.3813C351.452 66.9854 354.84 63.6659 356.019 60.2857C357.576 55.8338 357.986 51.3574 358.756 46.8887L364.288 46.1112C366.321 51.2999 364.562 56.735 361.169 62.3044C358.427 66.8008 355.841 71.3231 353.663 75.8622C352.085 79.1554 353.13 82.0215 356.677 84.4671C362.757 88.6627 369.075 92.8089 373.977 97.5041C377.154 100.548 378.015 104.517 379.913 108.075C379.94 108.135 379.976 108.188 380.003 108.248L380.012 108.241Z" fill="#5A1FFF"/>
<path d="M300.031 119.482L293.508 120.399C289.803 116.495 286.072 112.606 282.216 108.761C277.414 103.972 272.199 99.3422 267.685 94.4492C263.493 89.9034 265.885 84.6659 269.256 79.6141C272.774 74.3191 276.278 69.0683 276.515 63.6296C276.595 61.9103 276.469 60.204 276.357 58.4692L282.936 57.5446C283.81 62.9598 282.683 68.3167 279.317 73.8133C276.789 77.9507 274.744 82.153 272.848 86.3448C271.341 89.6757 272.862 92.5599 275.595 95.1357C280.879 100.127 286.351 105.04 291.438 110.107C294.502 113.156 297.227 116.338 300.032 119.487L300.031 119.482Z" fill="#5A1FFF"/>
<path d="M364.149 110.471L356.931 111.485C354.467 107.062 351.935 102.692 346.974 98.9916C341.283 94.7413 335.942 90.2139 331.963 85.2988C328.282 80.7607 331.954 75.4227 334.876 70.3281C337.51 65.7408 340.375 61.1156 341.851 56.4947C342.608 54.1445 341.747 51.783 341.179 49.3589L348.036 48.3953C349.913 53.5476 348.572 58.8656 345.241 64.3413C342.77 68.4071 340.471 72.4911 338.221 76.5842C335.354 81.7985 338.457 85.8555 342.947 89.5052C347.235 92.9871 352.54 96.0449 356.308 99.7221C359.68 103.009 361.601 106.866 364.132 110.484L364.149 110.471Z" fill="#5A1FFF"/>
<path d="M395.152 106.113L388.74 107.015C387.116 101.71 386.368 96.2559 378.843 92.3961C372.888 89.3501 368.715 85.1412 364.291 81.2275C362.801 79.9038 362.217 77.9011 362.569 76.1701C363.157 73.292 364.179 70.2785 366.169 67.4951C371.579 59.9343 376.619 52.4359 373.86 44.7713L380.439 43.8467C382.209 49.0458 380.937 54.3807 377.486 59.8838C374.56 64.544 371.99 69.2497 369.419 73.9502C367.871 76.783 368.908 79.1198 372.123 81.0179C377.296 84.0732 383.08 86.8461 385.4 91.2465C385.708 91.8291 386.875 92.2009 387.658 92.6585C391.198 94.7178 393.414 97.1117 393.57 100.373C393.666 102.333 394.433 104.225 395.162 106.117L395.152 106.113Z" fill="#5A1FFF"/>
<path d="M614.333 29.2654C615.02 35.4972 613.367 42.0261 613.398 48.3608C613.411 53.6318 614.403 58.8076 614.911 64.0355C615.148 66.5272 615.329 69.0268 615.464 71.5328C615.528 72.7332 615.556 73.9387 615.565 75.1469L608.106 76.1952C607.914 71.5329 608.028 66.8277 606.968 62.3138C605.242 54.939 607.012 47.3645 607.974 39.8188C608.652 34.4931 607.435 29.5345 605.275 24.5813C603.632 20.8283 603.701 16.681 603.288 12.5325L609.496 11.66C611.291 17.5081 613.671 23.2793 614.344 29.2745L614.333 29.2654Z" fill="#5A1FFF"/>
<path d="M647.181 37.1625C645.924 45.0256 644.58 52.7417 647.884 60.1813C649.293 63.3517 648.855 66.9567 648.81 70.4694L641.555 71.489C641.794 66.5328 641.933 61.6064 639.797 56.8938C636.706 50.0927 639.869 42.6832 641.153 35.4795C642.165 29.7779 641.376 24.4941 638.422 19.2757C636.476 15.8518 636.76 11.8228 636.441 7.86802L642.612 7.00074C642.682 7.50013 642.751 7.9943 642.82 8.48328C643.481 12.9153 644.966 17.1625 646.625 21.4382C648.53 26.3212 648.032 31.855 647.182 37.1677L647.181 37.1625Z" fill="#5A1FFF"/>
<path d="M630.131 42.7045C628.986 49.3477 628.799 55.7501 631.179 62.0623C632.446 65.4277 631.712 69.2176 631.41 72.9149L624.924 73.8265C625.049 68.8013 624.48 63.879 623.529 58.9308C622.259 52.3088 623.645 45.2338 624.591 38.3163C625.398 32.4262 624.472 26.9811 621.739 21.5832C619.985 18.1164 620.185 14.1576 619.817 10.199L625.803 9.35774C626.714 15.5051 629.272 21.336 631.131 27.3024C632.617 32.0906 631.019 37.5296 630.131 42.7045V42.7045Z" fill="#5A1FFF"/>
<path d="M662.445 43.3084C662.301 47.5247 663.742 51.5976 664.215 55.7695C664.69 59.8829 664.969 64.0237 665.285 68.1541L658.604 69.0929C658.56 68.8446 658.516 68.6014 658.472 68.353C657.56 63.2721 656.089 58.2537 655.884 53.0946C655.661 47.4076 656.121 41.6085 657.142 35.8263C658.374 28.7943 658.512 22.1122 654.551 15.7145C652.703 12.7172 653.018 9.10821 652.767 5.57349L658.53 4.76352C660.746 10.9132 663.652 16.8651 664.331 23.1087C665.044 29.6657 662.675 36.6082 662.437 43.3149L662.445 43.3084Z" fill="#5A1FFF"/>
<path d="M440.952 94.2236C441.045 96.03 441.064 97.8468 441.082 99.6584L434.68 100.558C434.722 98.3031 434.763 96.0428 434.721 93.7943C434.694 92.5939 434.827 91.2492 434 90.2779C430.247 85.8243 427.957 80.693 420.983 77.5938C409.868 72.6631 409.327 66.2569 416.494 58.221C422.282 51.737 424.776 45.0792 422.563 38.4783C422.5 38.3014 422.466 38.1206 422.439 37.9334L428.99 37.0127C431.114 43.1806 429.075 49.3818 424.37 55.7083C422.106 58.7584 420.126 61.88 418.609 65.0054C417.057 68.2101 418.935 70.816 422.279 72.9612C424.055 74.1014 425.772 75.2976 427.792 76.2921C434.42 79.5512 436.782 84.455 440.205 88.9125C441.348 90.3909 440.85 92.4237 440.952 94.2236V94.2236Z" fill="#5A1FFF"/>
<path d="M410.329 103.98L404.621 104.783C404.085 102.508 403.557 100.232 402.928 97.976C402.583 96.7302 402.397 95.34 401.288 94.3765C396.357 90.0832 392.049 85.3787 385.725 81.8646C378.981 78.1126 376.606 74.1231 380.526 68.4002C381.349 67.1971 381.67 65.9212 382.602 64.7506C388.444 57.3782 392.851 50.0062 390.092 42.4794L396.615 41.5626C398.677 46.8904 397.094 52.4334 393.469 58.1043C390.775 62.3288 388.369 66.5871 385.655 70.8091C383.911 73.5261 384.854 75.6692 387.577 77.4933C389.131 78.5321 391.093 79.381 392.459 80.4992C397.774 84.8341 404.012 88.8801 407.756 93.7381C410.031 96.6859 409.932 100.413 410.328 103.975L410.329 103.98Z" fill="#5A1FFF"/>
<path d="M471.734 90.1786C471.504 91.9031 471.846 93.595 472.16 95.2908L465.813 96.1828C465.59 94.3947 465.339 92.6104 465.509 90.7936C466.154 83.9554 462.985 78.1467 456.23 73.245C453.441 71.218 450.297 69.3524 447.758 67.2161C444.137 64.1762 443.006 60.431 446.162 56.603C452.498 48.9067 457.521 41.2888 454.824 33.3874L461.412 32.4615C463.364 38.1548 461.74 44.0112 457.183 49.9723C456.21 51.2496 455.13 52.51 454.041 53.7664C450.156 58.2643 450.561 62.3556 454.513 65.9378C456.842 68.0559 459.805 69.9098 462.554 71.8523C469.741 76.9372 472.676 83.0335 471.743 90.1721L471.734 90.1786Z" fill="#5A1FFF"/>
<path d="M456.114 93.6681C455.822 94.9556 456.087 96.234 456.389 97.5123L450.311 98.3666C450.272 96.2078 450.234 94.0541 450.195 91.8953C450.169 90.7691 450.59 89.527 450.045 88.5426C447.33 83.7417 445.002 78.8067 438.661 75.2419C435.953 73.7234 433.47 72.0566 431.202 70.3065C427.176 67.2069 427.15 63.4549 429.835 59.4385C431.913 56.3351 434.433 53.2914 436.539 50.1893C439.881 45.2637 439.815 40.4935 438.636 35.6623L445.094 34.7547C447.028 40.1111 445.885 45.6294 441.833 51.286C440.355 53.3398 438.616 55.3559 437.061 57.3992C433.694 61.8138 433.944 65.8154 438.214 69.2362C440.098 70.7432 442.329 72.0953 444.462 73.4877C452.878 78.9834 458.012 85.3224 456.131 93.6551L456.114 93.6681Z" fill="#5A1FFF"/>
<path d="M425.297 98.8056C425.466 99.8056 425.681 100.799 425.896 101.793L419.697 102.664C419.503 100.341 419.327 98.016 418.985 95.7141C418.796 94.3668 418.604 92.8713 417.467 91.8376C412.576 87.422 408.443 82.4913 401.943 78.9967C393.693 74.5544 393.78 69.524 398.294 63.3198C400.526 60.2424 402.699 57.152 404.642 54.0356C407.189 49.9698 407.873 45.9589 406.547 42.0394C406.353 41.462 406.268 40.8586 406.207 40.2253L412.665 39.3176C414.785 44.9237 413.401 50.7359 409.208 56.7359C406.644 60.4116 404.506 64.1549 402.154 67.8591C400.374 70.6608 401.705 72.8662 404.311 74.8021C405.691 75.8176 407.463 76.6561 408.736 77.7131C413.894 82.0117 419.522 86.154 423.755 90.7948C425.711 92.9441 424.834 96.1175 425.297 98.8108L425.297 98.8056Z" fill="#5A1FFF"/>
<path d="M284.631 121.646L277.951 122.585C275.463 119.603 273.072 116.582 270.226 113.74C265.366 108.88 260.439 104.008 254.77 99.5002C248.506 94.5295 248.986 88.8709 252.54 82.6955C254.339 79.5622 257.145 76.4678 258.226 73.3347C259.67 69.1533 260.242 64.9565 261.068 60.6126L266.868 59.7974C267.733 65.1397 266.45 70.5397 263.071 76.0753C260.652 80.0435 258.62 84.069 256.86 88.0878C255.229 91.8128 257.274 94.8673 260.316 97.75C268.133 105.171 275.746 112.678 283.376 120.173C283.848 120.642 284.247 121.133 284.621 121.637L284.631 121.646Z" fill="#5A1FFF"/>
<path d="M269.361 123.792L263.171 124.662C260.722 121.755 258.361 118.808 255.537 116.054C250.445 111.088 245.286 106.116 239.367 101.516C233.449 96.9161 233.147 91.6751 236.302 85.821C238.04 82.5902 240.958 79.4216 242.139 76.1949C243.744 71.8106 244.504 67.4069 245.539 62.8004L251.209 62.0034C251.711 67.3861 250.527 72.7457 247.168 78.2253C244.685 82.2717 242.704 86.3959 241.023 90.5045C239.581 94.0279 241.742 96.8964 244.593 99.636C252.966 107.647 261.132 115.735 269.362 123.797L269.361 123.792Z" fill="#5A1FFF"/>
<path d="M254.563 125.872L248.328 126.748C245.217 123.239 242.232 119.68 238.727 116.326C233.422 111.253 227.473 106.434 221.943 101.445C216.933 96.9244 218.925 91.6687 221.704 86.2971C224.409 81.0737 226.998 75.8297 229.084 70.5713C229.803 68.7622 229.696 66.9207 229.703 65.0207L235.79 64.1651C236.06 69.5114 234.928 74.8372 231.573 80.2739C229.242 84.0653 227.166 87.9113 225.656 91.7572C224.064 95.8267 226.481 99.1101 229.92 102.266C238.363 110.039 246.405 117.979 254.563 125.867L254.563 125.872Z" fill="#5A1FFF"/>
<path d="M240.359 127.868L234.263 128.725C227.141 121.684 220.691 114.315 212.125 107.955C203.527 101.572 201.577 94.8867 207.778 86.5727C212.596 80.1135 214.56 73.6471 214.471 67.1667L220.512 66.3176C220.948 71.7732 219.342 77.1497 216.124 82.6255C213.799 86.5859 212.021 90.6074 210.317 94.6185C208.689 98.4332 211.518 101.282 214.629 104.054C222.699 111.259 230.689 118.491 238.598 125.755C239.313 126.408 239.859 127.132 240.359 127.868V127.868Z" fill="#5A1FFF"/>
<path d="M226.183 129.86L220.568 130.65C212.731 122.288 204.485 114.1 193.845 106.906C188.394 103.216 187.941 98.58 190.162 93.5362C191.278 90.9923 193.432 88.4988 194.482 85.9587C196.391 81.3195 197.928 76.6582 199.41 72.0099C199.706 71.0878 199.747 70.1696 199.766 69.2281L205.584 68.4103C205.687 73.849 204.415 79.1839 201.107 84.6193C198.795 88.4081 196.937 92.2605 195.389 96.1064C193.706 100.268 196.268 103.574 200.325 106.42C210.526 113.59 218.761 121.562 226.193 129.864L226.183 129.86Z" fill="#5A1FFF"/>
<path d="M212.303 131.811L206.735 132.594C198.839 124.15 190.115 116.061 179.25 108.873C173.51 105.075 173.241 100.201 175.805 94.9811C177.39 91.74 180.289 88.5688 181.517 85.3356C183.276 80.7067 184.322 76.0508 185.618 71.2217L190.825 70.4899C190.972 75.8375 189.633 81.166 186.38 86.5936C184.107 90.3875 182.202 94.2465 180.636 98.095C178.945 102.263 181.483 105.599 185.627 108.395C196.162 115.519 204.679 123.478 212.304 131.816L212.303 131.811Z" fill="#5A1FFF"/>
<path d="M8.73529 160.421L2.83305 161.25C2.5749 160.422 2.27114 159.605 1.77647 158.842C-3.72979 150.455 -9.37138 142.113 -14.9859 133.762C-18.9891 127.8 -21.2358 121.496 -21.4359 114.76C-21.5614 110.439 -21.9934 106.155 -22.2493 101.847C-22.2765 101.384 -22.266 100.921 -22.2399 100.434L-16.4118 99.6151C-16.1327 104.021 -15.8131 108.379 -15.6426 112.753C-15.3243 120.866 -13.0902 128.494 -7.01056 135.447C-3.29491 139.699 -1.20811 144.53 1.63436 149.091C3.98922 152.871 6.36263 156.648 8.73529 160.421V160.421Z" fill="#5A1FFF"/>
<path d="M198.488 133.753L192.864 134.543C185.115 126.339 176.716 118.411 165.814 111.562C159.596 107.661 158.203 102.722 161.392 97.1765C165.957 89.2517 171.306 81.3969 170.56 73.3327L176.342 72.5201C176.482 77.8846 175.279 83.1727 171.909 88.5054C170.487 90.7581 168.931 92.9979 167.681 95.2636C164.344 101.308 165.532 106.398 171.729 110.959C179.927 116.989 187.205 123.456 194.703 129.813C196.152 131.047 197.324 132.394 198.497 133.746L198.488 133.753Z" fill="#5A1FFF"/>
<path d="M22.9863 158.418L17.0377 159.254C14.7419 155.625 12.4367 151.997 10.185 148.345C7.40543 143.829 5.61436 138.951 1.75801 134.841C-3.64361 129.081 -6.02164 122.715 -6.98741 116.045C-7.81671 110.279 -7.58971 104.364 -7.69237 98.3897L-2.01255 97.5915C-1.69838 102.247 -1.15837 106.829 -1.36478 111.478C-1.69355 118.686 0.936836 125.233 5.14511 131.511C8.68389 136.791 12.1678 142.083 15.6795 147.372C18.1246 151.054 20.5875 154.729 22.9963 158.422L22.9863 158.418Z" fill="#5A1FFF"/>
<path d="M184.552 135.711L178.965 136.497C171.295 128.578 163.285 120.797 152.703 114.147C145.116 109.378 144.614 103.587 148.259 96.8472C151.214 91.3872 153.718 85.8739 155.958 80.3606C156.624 78.718 156.568 77.039 156.597 75.2951L162.128 74.5176C162.135 79.8744 160.975 85.2041 157.635 90.6174C155.458 94.1487 153.42 97.7345 152.034 101.319C150.252 105.919 152.694 109.714 157.528 112.779C168.349 119.65 176.815 127.521 184.561 135.71L184.552 135.711Z" fill="#5A1FFF"/>
<path d="M36.4855 156.521L30.9446 157.299C29.5101 154.891 28.0849 152.482 26.5777 150.094C22.956 144.36 20.0444 138.366 15.3779 132.996C10.3728 127.233 7.72429 121.027 6.9648 114.413C6.29766 108.523 6.6042 102.502 6.60298 96.3752L12.3755 95.564C12.326 101.263 12.1251 106.893 12.3883 112.463C12.7921 120.984 17.8164 128.362 23.4681 135.699C28.6204 142.375 32.3176 149.521 36.4848 156.515L36.4855 156.521Z" fill="#5A1FFF"/>
<path d="M170.654 137.665L165.076 138.449C157.138 130.44 149.235 122.416 138.678 115.535C131.231 110.683 131.425 104.74 134.658 98.0904C137.459 92.3391 139.734 86.5449 141.983 80.7598C142.419 79.627 142.418 78.4813 142.421 77.2874L147.98 76.5061C148.046 81.8863 146.644 87.2394 143.344 92.6683C141.25 96.1189 139.467 99.6371 138.239 103.136C136.561 107.939 139.377 111.771 144.328 114.995C154.82 121.817 162.898 129.673 170.663 137.663L170.654 137.665Z" fill="#5A1FFF"/>
<path d="M50.283 154.582L44.6957 155.367C42.9974 152.762 41.2899 150.159 39.6093 147.547C36.0884 142.058 33.4127 136.265 28.8655 131.137C23.7669 125.382 21.2404 119.17 20.6926 112.516C20.2027 106.543 20.5396 100.469 20.6135 94.4063L26.247 93.6145C26.1471 99.3576 25.9455 104.982 26.0697 110.572C26.2574 119.303 31.3236 126.845 37.1262 134.316C42.2018 140.848 46.0479 147.777 50.283 154.582V154.582Z" fill="#5A1FFF"/>
<path d="M117.005 145.204L110.992 146.05C108.845 143.142 106.841 140.177 104.076 137.516C98.1542 131.818 91.7835 126.289 85.121 120.903C79.9509 116.722 79.4453 111.781 80.7156 106.499C81.3252 103.979 83.3116 101.44 83.9212 98.9191C85.0519 94.3255 85.6914 89.732 86.5106 85.1398L92.0793 84.3571C90.9457 90.0067 91.2277 95.4415 87.9574 101.216C83.7481 108.646 83.6084 115.922 92.5376 121.637C103.19 128.453 109.809 136.959 116.995 145.201L117.005 145.204Z" fill="#5A1FFF"/>
<path d="M130.144 143.358L124.649 144.13C116.981 135.352 109.178 126.624 98.1017 119.211C92.2508 115.296 92.1461 110.181 93.8477 104.876C95.2452 100.5 97.8244 96.1269 99.137 91.7518C99.9894 88.9425 100.02 86.1322 100.243 83.2151L105.839 82.4286C104.999 88.0105 104.839 93.3959 101.493 99.0381C96.8887 106.815 96.3075 114.243 105.566 120.215C116.039 126.97 122.891 135.253 130.134 143.354L130.144 143.358Z" fill="#5A1FFF"/>
<path d="M156.625 139.636L151.205 140.398C143.784 132.906 137.395 124.966 127.255 118.631C118.543 113.182 116.859 106.517 121.665 98.8237C125.731 92.3269 127.765 85.893 128.133 79.2955L133.766 78.5037C133.64 83.789 132.459 89.0367 129.451 94.3928C127.365 98.1074 125.662 101.917 124.696 105.67C123.265 111.219 128.891 114.746 133.571 118.666C141.689 125.466 149.042 132.602 156.635 139.635L156.625 139.636Z" fill="#5A1FFF"/>
<path d="M103.57 147.093L98.0106 147.874C92.751 141.107 87.8711 134.218 80.0631 128.345C74.1254 123.88 67.487 119.471 68.0739 112.891C68.3951 109.26 69.5967 105.574 70.32 101.913C71.0679 98.158 71.7495 94.402 72.4218 90.6474C72.6408 89.4495 72.8313 88.2505 73.0204 87.041L78.4686 86.2753C77.2007 92.0445 77.6118 97.5248 74.5986 103.38C69.8556 112.593 73.9668 120.465 84.1606 126.91C93.1731 132.613 98.091 139.975 103.56 147.089L103.57 147.093Z" fill="#5A1FFF"/>
<path d="M143.459 141.487L137.612 142.308C136.112 140.509 134.639 138.705 132.854 137.03C126.673 131.237 121.01 125.163 113.669 119.919C105.581 114.139 104.752 107.635 108.239 99.9043C111.013 93.7589 112.892 87.5642 115.161 81.1237L119.711 80.4843C119.355 85.6851 119.099 90.787 115.676 95.9468C112.462 100.78 110.39 105.67 111.84 110.336C112.666 112.989 114.55 115.706 117.414 117.658C127.888 124.822 135.097 133.288 143.335 141.35C143.38 141.397 143.423 141.438 143.468 141.485L143.459 141.487Z" fill="#5A1FFF"/>
<path d="M63.9686 152.658L58.4833 153.429C53.0772 145.553 48.1406 137.521 41.753 129.989C36.6014 123.923 34.3547 117.417 33.8923 110.496C33.4968 104.589 33.993 98.5732 34.2066 92.4959L39.3583 91.7719C39.4455 95.9556 39.7107 100.061 39.3678 104.21C38.6453 113.053 39.6275 121.387 46.3376 128.995C53.0455 136.587 58.25 144.709 63.9586 152.654L63.9686 152.658Z" fill="#5A1FFF"/>
<path d="M90.6811 148.904L84.9549 149.709C84.9184 149.65 84.8725 149.593 84.8182 149.542C77.6665 141.482 70.9358 133.256 63.0406 125.486C58.2495 120.775 56.655 115.615 56.8117 110.007C56.8861 107.174 58.4747 104.225 58.8284 101.363C59.3362 97.2447 59.4967 93.1428 59.7523 88.911L65.5712 88.0932C64.455 93.5971 63.4353 98.9814 62.1996 104.375C60.7076 110.902 59.9076 117.513 65.722 122.648C75.1915 130.998 83.5961 139.704 90.6818 148.909L90.6811 148.904Z" fill="#5A1FFF"/>
<path d="M77.1445 150.807L71.3534 151.62C67.0247 145.561 63.1105 139.358 57.8559 133.636C50.8261 125.972 44.7766 118.223 45.6478 108.69C46.1969 102.714 46.7353 96.7294 47.2905 90.6624L52.3774 89.9475C52.0615 94.8934 52.0018 99.7131 51.1151 104.564C49.7281 112.175 50.4158 119.287 56.0622 125.713C63.3301 133.996 70.165 142.425 77.1545 150.81L77.1445 150.807Z" fill="#5A1FFF"/>
</svg>
