<svg width="33" height="41" viewBox="0 0 33 41" fill="none" xmlns="http://www.w3.org/2000/svg">
<path d="M12.325 41C9.93178 41 7.79784 40.5705 5.92317 39.7114C4.08838 38.8524 2.63252 37.6029 1.55558 35.9629C0.518526 34.3229 0 32.351 0 30.0471C0 28.329 0.319093 26.8452 0.957279 25.5957C1.59547 24.3462 2.45303 23.3114 3.52997 22.4914C4.64679 21.6324 5.84339 21.0076 7.11977 20.6171V19.8557C5.20521 19.27 3.5898 18.2548 2.27354 16.81C0.95728 15.3652 0.29915 13.4129 0.29915 10.9529C0.29915 8.57095 0.837619 6.57953 1.91456 4.97857C3.03138 3.33857 4.50719 2.10857 6.34198 1.28857C8.17676 0.429524 10.2509 0 12.5643 0H19.6242V5.09571H13.5814C11.5871 5.09571 9.91183 5.62286 8.55569 6.67714C7.19954 7.69238 6.52147 9.27381 6.52147 11.4214C6.52147 12.9052 6.84056 14.1157 7.47875 15.0529C8.15682 15.951 9.01438 16.6343 10.0514 17.1029C11.1284 17.5324 12.305 17.7471 13.5814 17.7471H20.5815V11.9486H26.744V17.7471H32.4278V22.8429H26.744V41H12.325ZM13.3421 35.9043H20.5815V22.8429H13.3421C11.3478 22.8429 9.65257 23.3895 8.25654 24.4829C6.8605 25.5371 6.16249 27.1771 6.16249 29.4029C6.16249 31.6286 6.88045 33.2686 8.31637 34.3229C9.75229 35.3771 11.4275 35.9043 13.3421 35.9043Z" fill="white"/>
</svg>
