<svg width="94" height="84" viewBox="0 0 94 84" fill="none" xmlns="http://www.w3.org/2000/svg">
<g clip-path="url(#clip0_523_862)">
<path d="M85.3059 5.62866C83.5938 5.62866 82.1997 7.03277 82.1997 8.75711C82.1997 10.4814 83.5938 11.8856 85.3059 11.8856C87.018 11.8856 88.4121 10.4814 88.4121 8.75711C88.4121 7.03277 87.018 5.62866 85.3059 5.62866Z" fill="white"/>
<path d="M85.305 17.5267C90.0989 17.5267 94 13.5977 94 8.75719C94 3.91672 90.0989 0 85.305 0C80.5111 0 76.61 3.92903 76.61 8.75719C76.61 13.5853 80.5111 17.5144 85.305 17.5144V17.5267ZM85.305 0.960704C89.573 0.960704 93.0461 4.45865 93.0461 8.75719C93.0461 13.0557 89.573 16.5537 85.305 16.5537C81.037 16.5537 77.5639 13.0557 77.5639 8.75719C77.5639 4.45865 81.0248 0.960704 85.305 0.960704Z" fill="white"/>
<path d="M-225 84H-53.2283V36.2358L-26.4217 9.24988H85.3047V8.27686H-26.8253L-26.9598 8.42466L-54.1821 35.8417V83.0393H-225V84Z" fill="white"/>
<g opacity="0.5">
<path d="M12.8726 5.14844H68.4668V6.10914H12.8726V5.14844Z" fill="white"/>
</g>
<path d="M-16.1976 5.14844H2.01172V6.10914H-16.1976V5.14844Z" fill="white"/>
</g>
<defs>
<clipPath id="clip0_523_862">
<rect width="319" height="84" fill="white" transform="matrix(-1 0 0 1 94 0)"/>
</clipPath>
</defs>
</svg>
