<svg width="101" height="65" viewBox="0 0 101 65" fill="none" xmlns="http://www.w3.org/2000/svg">
<g clip-path="url(#clip0_523_843)">
<path d="M8.62981 11.6064C10.3291 11.6064 11.7128 10.2368 11.7128 8.55469C11.7128 6.87262 10.3291 5.50293 8.62981 5.50293C6.93056 5.50293 5.54687 6.87262 5.54687 8.55469C5.54687 10.2368 6.93056 11.6064 8.62981 11.6064Z" fill="white"/>
<path d="M8.6298 -5.60676e-05C3.87188 -5.56516e-05 -1.15855e-06 3.83266 -7.4681e-07 8.54245C-3.35067e-07 13.2522 3.87188 17.085 8.6298 17.085C13.3877 17.085 17.2596 13.2522 17.2596 8.54245C17.2596 3.83266 13.3877 -5.64835e-05 8.6298 -5.60676e-05ZM8.6298 16.1598C4.3938 16.1598 0.946729 12.7476 0.946729 8.55447C0.946728 4.36131 4.39379 0.94911 8.6298 0.949109C12.8658 0.949109 16.3129 4.36131 16.3129 8.55447C16.3129 12.7476 12.8658 16.1598 8.6298 16.1598Z" fill="white"/>
<path d="M8.94518 8.19414L8.32617 8.90302L47.0935 42.0398L108.667 42.0398L126.886 57.5869L324 57.5869L324 56.6377L127.25 56.6377L109.019 41.1026L47.4577 41.1026L8.94518 8.19414Z" fill="white"/>
<g opacity="0.5">
<path d="M26.7889 29.196L26.1699 29.9049L45.0074 46.3291L70.8726 46.3291L70.8726 45.3799L45.3715 45.3799L26.7889 29.196Z" fill="white"/>
</g>
</g>
<defs>
<clipPath id="clip0_523_843">
<rect width="324" height="65" fill="white" transform="matrix(1 -8.74228e-08 -8.74228e-08 -1 0 65)"/>
</clipPath>
</defs>
</svg>
