<svg width="127" height="41" viewBox="0 0 127 41" fill="none" xmlns="http://www.w3.org/2000/svg">
<g clip-path="url(#clip0_523_873)">
<path d="M52.8653 35.5541C52.8653 34.2785 52.8653 33.0063 52.8653 31.7308C52.8653 31.3264 52.8487 31.3198 53.2673 31.3198C53.8453 31.3198 54.4266 31.3198 55.0046 31.3198C55.2837 31.3198 55.297 31.333 55.3003 31.6058C55.3003 32.4343 55.3003 33.2627 55.3003 34.0912C55.3003 34.5317 55.2538 34.5251 55.7388 34.5251C56.5759 34.5251 57.413 34.5251 58.2502 34.5251C58.6189 34.5251 58.6222 34.5251 58.6222 34.1503C58.6222 33.3449 58.6222 32.5362 58.6222 31.7308C58.6222 31.3231 58.6222 31.3198 59.0242 31.3198C59.5723 31.3198 60.1204 31.3198 60.6652 31.3198C60.7283 31.3198 60.7948 31.3198 60.8579 31.3231C60.9974 31.333 61.0306 31.3626 61.0406 31.4941C61.0472 31.5697 61.0439 31.642 61.0439 31.7176C61.0439 34.2851 61.0439 36.8559 61.0439 39.4234C61.0439 39.5188 61.0439 39.6141 61.034 39.7094C61.0273 39.7818 60.9841 39.8245 60.9077 39.8278C60.8446 39.8311 60.7782 39.8344 60.7151 39.8344C60.1237 39.8344 59.5358 39.8344 58.9445 39.8344C58.9245 39.8344 58.9013 39.8344 58.8813 39.8344C58.6488 39.8278 58.6256 39.8081 58.6256 39.5747C58.6222 38.7265 58.6256 37.875 58.6256 37.0269C58.6256 36.9217 58.6256 36.8132 58.6222 36.708C58.6123 36.5535 58.5824 36.5272 58.4262 36.5206C58.3399 36.5173 58.2535 36.5206 58.1671 36.5206C57.3732 36.5206 56.5792 36.5206 55.7853 36.5206C55.7322 36.5206 55.679 36.5206 55.6259 36.5206C55.4132 36.5228 55.3058 36.6302 55.3036 36.8428C55.3036 36.9282 55.3036 37.0137 55.3036 37.0992C55.3036 37.8849 55.3036 38.6706 55.3036 39.4563C55.3036 39.8574 55.3136 39.8409 54.915 39.8409C54.3569 39.8409 53.7988 39.8409 53.2407 39.8409C53.1543 39.8409 53.068 39.8409 52.9849 39.8311C52.9251 39.8245 52.8853 39.785 52.8819 39.7259C52.872 39.6207 52.8686 39.5155 52.8686 39.407C52.8686 38.1216 52.8686 36.8395 52.8686 35.5541H52.8653Z" fill="white"/>
<path d="M118.541 34.1141C118.541 34.7387 118.541 35.3666 118.541 35.9913C118.541 36.3529 118.514 36.7112 118.445 37.0663C118.152 38.5785 117.245 39.5253 115.731 39.8738C114.86 40.0743 113.98 40.0677 113.116 39.8409C111.744 39.4825 110.9 38.6081 110.575 37.2438C110.488 36.8822 110.449 36.5107 110.445 36.1392C110.445 34.6434 110.445 33.1476 110.445 31.6485C110.445 31.3263 110.452 31.3198 110.764 31.3198C111.365 31.3198 111.967 31.3198 112.568 31.3198C112.601 31.3198 112.631 31.3198 112.664 31.3198C112.85 31.3296 112.877 31.3559 112.884 31.5532C112.887 31.6485 112.884 31.7439 112.884 31.8392C112.884 33.2068 112.884 34.5776 112.884 35.9452C112.884 36.2115 112.894 36.4745 112.953 36.7375C112.99 36.892 113.033 37.0465 113.103 37.1912C113.289 37.5923 113.595 37.8553 114.033 37.9539C114.372 38.0295 114.714 38.0295 115.053 37.9374C115.425 37.8388 115.697 37.612 115.877 37.2734C116.013 37.0169 116.086 36.7375 116.109 36.4515C116.129 36.2082 116.136 35.965 116.136 35.7217C116.136 34.3936 116.136 33.0687 116.136 31.7406C116.136 31.3 116.129 31.3165 116.554 31.3165C117.079 31.3165 117.607 31.3165 118.132 31.3165C118.219 31.3165 118.305 31.3165 118.388 31.3231C118.481 31.3329 118.521 31.3724 118.531 31.4644C118.538 31.5598 118.538 31.6551 118.538 31.7504C118.538 32.5361 118.538 33.3218 118.538 34.1075L118.541 34.1141Z" fill="white"/>
<path d="M26.5506 34.101C26.5506 34.7388 26.5506 35.3733 26.5506 36.011C26.5506 36.4253 26.5174 36.8395 26.4211 37.2438C26.0789 38.6772 25.1687 39.5582 23.7237 39.8804C22.8533 40.0743 21.973 40.0678 21.1093 39.8377C19.7506 39.4793 18.9135 38.6081 18.588 37.2603C18.4983 36.8888 18.4551 36.5074 18.4551 36.1228C18.4551 34.6369 18.4551 33.1509 18.4551 31.665C18.4551 31.3264 18.4551 31.3231 18.7906 31.3198C19.3819 31.3198 19.9699 31.3198 20.5612 31.3198C20.6343 31.3198 20.7107 31.3264 20.7838 31.3363C20.8435 31.3428 20.8801 31.3856 20.8834 31.4447C20.8901 31.5499 20.8934 31.6551 20.8934 31.7636C20.8934 33.1542 20.8934 34.5448 20.8934 35.9354C20.8934 36.2017 20.9033 36.4647 20.9598 36.7277C20.9964 36.8954 21.0462 37.0565 21.1193 37.211C21.3053 37.5989 21.6043 37.8553 22.0295 37.9539C22.3683 38.0328 22.7105 38.0328 23.0493 37.9474C23.4347 37.8487 23.7137 37.6153 23.8964 37.2669C24.0293 37.0071 24.1024 36.731 24.1223 36.4417C24.1389 36.2083 24.1456 35.9749 24.1456 35.7415C24.1456 34.4133 24.1456 33.0885 24.1456 31.7603C24.1456 31.2968 24.1356 31.3231 24.584 31.3231C25.1421 31.3231 25.7002 31.3231 26.2583 31.3231C26.5307 31.3231 26.5473 31.3428 26.5506 31.6157C26.5506 32.4441 26.5506 33.2726 26.5506 34.0977V34.101Z" fill="white"/>
<path d="M10.2703 35.5607C10.2703 34.2753 10.2703 32.9931 10.2703 31.7077C10.2703 31.3264 10.2504 31.3198 10.659 31.3198C12.6455 31.3198 14.6287 31.3198 16.6152 31.3198C17.0205 31.3198 17.0205 31.3198 17.0205 31.7242C17.0205 32.0858 17.0205 32.4474 17.0205 32.8058C17.0205 32.8814 17.0205 32.9537 17.0138 33.0293C17.0072 33.1279 16.9707 33.1674 16.8776 33.1772C16.7713 33.1871 16.665 33.1871 16.5554 33.1871C15.4193 33.1871 14.2799 33.1871 13.1438 33.1871C13.0375 33.1871 12.9279 33.1871 12.8216 33.197C12.7319 33.2035 12.692 33.2496 12.6787 33.3383C12.6787 33.3482 12.6787 33.3581 12.6787 33.3712C12.6787 33.7328 12.6787 34.0912 12.6787 34.4528C12.6787 34.5711 12.7186 34.6073 12.8315 34.6139C12.9279 34.6204 13.0242 34.6172 13.1205 34.6172C14.064 34.6172 15.0107 34.6172 15.9541 34.6172C16.0305 34.6172 16.1036 34.6172 16.18 34.6172C16.4989 34.6204 16.4989 34.6204 16.5023 34.9393C16.5023 35.3207 16.5023 35.702 16.5023 36.0867C16.5023 36.1491 16.5023 36.2149 16.4956 36.2773C16.489 36.3496 16.4491 36.3957 16.376 36.4022C16.2797 36.4088 16.1834 36.4121 16.087 36.4121C15.1004 36.4121 14.1138 36.4121 13.1239 36.4121C13.0275 36.4121 12.9312 36.4121 12.8348 36.4187C12.7252 36.4253 12.682 36.468 12.6787 36.5831C12.6754 36.9973 12.6754 37.4115 12.6787 37.8257C12.6787 37.9309 12.7285 37.9704 12.8448 37.9769C12.9411 37.9835 13.0375 37.9802 13.1338 37.9802C14.3463 37.9802 15.5588 37.9802 16.7713 37.9802C17.1799 37.9802 17.1667 37.9704 17.1667 38.3583C17.1667 38.7298 17.1667 39.1013 17.1667 39.4727C17.1667 39.5582 17.1633 39.6437 17.1534 39.7259C17.1467 39.785 17.1069 39.8212 17.0471 39.8278C16.974 39.8344 16.8976 39.8377 16.8212 39.8377C14.7516 39.8377 12.6787 39.8377 10.6092 39.8377C10.546 39.8377 10.4796 39.8377 10.4165 39.8311C10.3168 39.8212 10.277 39.7916 10.2703 39.6963C10.2637 39.5911 10.2637 39.4859 10.2637 39.3774C10.2637 38.1052 10.2637 36.8296 10.2637 35.5574L10.2703 35.5607Z" fill="white"/>
<path d="M38.8694 40.0118C37.8828 39.9921 36.9958 39.854 36.1454 39.5319C35.8929 39.4365 35.6504 39.3248 35.4212 39.1834C35.2651 39.0881 35.2518 39.0585 35.3215 38.904C35.5375 38.4174 35.7567 37.9342 35.976 37.4509C36.0258 37.3391 36.069 37.326 36.1753 37.3852C36.6138 37.6383 37.0788 37.8257 37.5672 37.9605C38.1319 38.115 38.7066 38.161 39.2913 38.1183C39.4407 38.1084 39.5869 38.0722 39.7331 38.0361C39.846 38.0098 39.9556 37.9572 40.052 37.8849C40.3543 37.6547 40.3609 37.2438 40.0619 37.0104C39.959 36.9315 39.8394 36.8822 39.7198 36.8394C39.3477 36.7047 38.9591 36.6126 38.5737 36.5271C38.0389 36.4088 37.5074 36.2773 36.9925 36.0932C36.5905 35.9485 36.245 35.725 35.9494 35.4225C35.6936 35.1661 35.5342 34.8604 35.4577 34.5086C35.2152 33.3975 35.6571 32.3652 36.6337 31.7702C37.0689 31.5039 37.5439 31.3362 38.0455 31.2573C39.1883 31.0798 40.3144 31.1488 41.4173 31.5006C41.6631 31.5795 41.9023 31.6748 42.1282 31.7965C42.3076 31.8918 42.3175 31.9148 42.2445 32.0956C42.0485 32.569 41.8491 33.0358 41.6532 33.5092C41.6498 33.5191 41.6465 33.529 41.6399 33.5388C41.5834 33.6506 41.5502 33.667 41.4405 33.6177C41.3143 33.5618 41.1881 33.4994 41.0618 33.4435C40.424 33.1706 39.7597 33.0161 39.0587 33.0326C38.876 33.0358 38.6933 33.0589 38.5172 33.1016C38.4043 33.1279 38.2947 33.1739 38.1851 33.2232C38.0854 33.266 38.0057 33.3383 37.9392 33.4238C37.7133 33.7065 37.7698 34.0615 38.0821 34.2456C38.2083 34.3212 38.3512 34.3804 38.494 34.4199C38.8461 34.5185 39.1982 34.604 39.5537 34.6862C40.0453 34.7979 40.5337 34.9163 41.012 35.0839C41.4439 35.2352 41.8226 35.4686 42.1415 35.7973C42.3541 36.0143 42.5069 36.2707 42.5866 36.5633C42.8557 37.566 42.5501 38.5917 41.6864 39.2327C41.2047 39.591 40.6599 39.8014 40.0719 39.9132C39.65 39.9954 39.2215 40.0151 38.8694 40.0217V40.0118Z" fill="white"/>
<path d="M123.225 40.0121C122.272 39.9957 121.438 39.8675 120.631 39.5847C120.315 39.4762 120.013 39.3447 119.731 39.1639C119.608 39.085 119.598 39.0555 119.654 38.9305C119.873 38.4341 120.096 37.941 120.322 37.4479C120.372 37.3394 120.418 37.3262 120.528 37.392C121.043 37.6912 121.591 37.8917 122.172 38.0265C122.657 38.1382 123.149 38.1547 123.644 38.1251C123.86 38.1119 124.069 38.0659 124.265 37.9739C124.405 37.9081 124.517 37.8128 124.581 37.6681C124.684 37.438 124.61 37.175 124.401 37.0139C124.298 36.935 124.179 36.889 124.056 36.843C123.694 36.7115 123.315 36.6227 122.94 36.5373C122.405 36.4189 121.873 36.2907 121.358 36.1066C120.946 35.9587 120.591 35.7318 120.285 35.4228C120.056 35.1894 119.897 34.9165 119.817 34.6009C119.561 33.5851 119.887 32.5167 120.817 31.8756C121.282 31.5535 121.803 31.3562 122.358 31.2642C123.521 31.0768 124.67 31.1524 125.793 31.514C126.039 31.5929 126.275 31.6915 126.501 31.8165C126.64 31.8921 126.653 31.9249 126.594 32.0729C126.414 32.5068 126.232 32.9375 126.052 33.3681C126.022 33.4372 125.996 33.5062 125.962 33.572C125.926 33.6476 125.883 33.664 125.806 33.6311C125.727 33.5983 125.65 33.5621 125.574 33.5226C125.066 33.2827 124.534 33.1216 123.976 33.0591C123.611 33.0164 123.248 33.0197 122.886 33.0953C122.707 33.1314 122.538 33.1972 122.391 33.3122C122.262 33.4174 122.175 33.5489 122.159 33.7166C122.132 33.9369 122.212 34.1111 122.398 34.236C122.534 34.3248 122.687 34.3807 122.84 34.4234C123.192 34.5187 123.544 34.6075 123.9 34.6864C124.391 34.7982 124.88 34.9165 125.358 35.0842C125.76 35.2223 126.112 35.4392 126.418 35.7318C126.707 36.0047 126.893 36.3334 126.966 36.7213C127.035 37.0797 127.039 37.4413 126.966 37.7964C126.833 38.4177 126.491 38.9042 125.972 39.2724C125.504 39.6077 124.973 39.805 124.408 39.9135C123.986 39.9924 123.557 40.0154 123.225 40.022V40.0121Z" fill="white"/>
<path d="M48.131 40.0085C47.2441 39.9987 46.4468 39.8573 45.7127 39.4694C44.3208 38.7363 43.5301 37.5955 43.3707 36.0405C43.2876 35.245 43.3939 34.4724 43.7261 33.7393C44.2444 32.6051 45.1214 31.8425 46.304 31.4414C47.4766 31.0436 48.6659 31.0535 49.8451 31.4315C50.4863 31.6386 51.0477 31.9871 51.5194 32.4704C51.5792 32.5328 51.6357 32.5953 51.6921 32.661C51.7386 32.7169 51.7486 32.7728 51.6921 32.8287C51.6689 32.8517 51.6456 32.8747 51.6224 32.8944C51.2171 33.2593 50.8118 33.621 50.4065 33.9859C50.3733 34.0155 50.3401 34.0418 50.3069 34.0681C50.2571 34.1075 50.2072 34.0977 50.164 34.0582C50.0843 33.9859 50.0146 33.907 49.9348 33.8347C49.2206 33.1837 48.3802 32.9964 47.4567 33.2528C46.5531 33.5026 46.0349 34.1305 45.8588 35.028C45.7724 35.4587 45.7891 35.8959 45.902 36.3233C46.1578 37.2898 46.9584 37.9308 47.9682 37.9999C48.7788 38.0558 49.4664 37.8026 50.0345 37.2306C50.081 37.1846 50.1242 37.1386 50.1707 37.0958C50.2139 37.0564 50.2637 37.0498 50.3135 37.0925C50.3534 37.1254 50.3966 37.1616 50.4364 37.1944C50.8185 37.5363 51.2005 37.8782 51.5825 38.2201C51.6157 38.2497 51.6456 38.276 51.6755 38.3089C51.7519 38.3878 51.7586 38.4207 51.6955 38.4996C51.6357 38.5752 51.5692 38.6442 51.5028 38.7133C50.8716 39.3444 50.1009 39.7159 49.2306 39.8967C48.8519 39.9756 48.4665 39.9987 48.1377 40.0085H48.131Z" fill="white"/>
<path d="M31.1084 31.323C32.2578 31.323 33.4039 31.323 34.5533 31.323C34.9619 31.323 34.9453 31.3263 34.9453 31.7076C34.9453 32.089 34.9453 32.4703 34.9453 32.855C34.9453 32.9306 34.9453 33.0029 34.9386 33.0785C34.932 33.1771 34.8954 33.2166 34.8024 33.2232C34.7061 33.2297 34.6098 33.233 34.5134 33.233C33.9122 33.233 33.3109 33.233 32.7096 33.233C32.291 33.233 32.311 33.233 32.311 33.6439C32.311 35.554 32.311 37.464 32.311 39.3773C32.311 39.8901 32.3508 39.8441 31.8492 39.8441C31.3244 39.8441 30.7962 39.8441 30.2713 39.8441C30.1849 39.8441 30.0986 39.8441 30.0155 39.8375C29.9391 39.8342 29.8993 39.7849 29.8926 39.7159C29.8826 39.6107 29.8826 39.5055 29.8826 39.397C29.8826 37.9538 29.8826 36.5106 29.8826 35.0674C29.8826 34.5907 29.8826 34.1108 29.8826 33.6341C29.8826 33.5486 29.8826 33.4631 29.8727 33.381C29.8627 33.2922 29.8195 33.2495 29.7298 33.2429C29.6335 33.2363 29.5372 33.2363 29.4408 33.2363C28.8063 33.2363 28.1752 33.2363 27.5407 33.2363C27.255 33.2363 27.2417 33.2232 27.2417 32.9536C27.2384 32.5065 27.2417 32.0627 27.2417 31.6156C27.2417 31.563 27.2417 31.5104 27.2517 31.4578C27.2616 31.3855 27.3115 31.3427 27.3812 31.3394C27.4875 31.3329 27.5972 31.3296 27.7035 31.3296C28.8396 31.3296 29.979 31.3296 31.1151 31.3296L31.1084 31.323Z" fill="white"/>
<path d="M103.111 35.5669C103.111 34.2848 103.111 32.9994 103.111 31.7173C103.111 31.326 103.111 31.326 103.497 31.3228C104.055 31.3228 104.613 31.3228 105.171 31.3228C105.234 31.3228 105.3 31.3228 105.364 31.326C105.5 31.3359 105.536 31.3688 105.543 31.497C105.55 31.6022 105.546 31.7107 105.546 31.8159C105.546 33.7029 105.546 35.5932 105.546 37.4802C105.546 37.5854 105.546 37.6939 105.553 37.7991C105.556 37.8714 105.599 37.9174 105.676 37.9207C105.772 37.9273 105.869 37.9273 105.965 37.9273C107.058 37.9273 108.154 37.9273 109.247 37.9273C109.662 37.9273 109.656 37.8977 109.656 38.3218C109.656 38.7031 109.656 39.0845 109.656 39.4691C109.656 39.5447 109.656 39.617 109.649 39.6926C109.639 39.7913 109.606 39.8241 109.509 39.834C109.423 39.8406 109.337 39.8406 109.254 39.8406C107.343 39.8406 105.433 39.8406 103.527 39.8406C103.463 39.8406 103.397 39.8406 103.334 39.8406C103.141 39.8307 103.121 39.8143 103.115 39.6105C103.111 39.525 103.115 39.4395 103.115 39.3573C103.115 38.0949 103.115 36.8325 103.115 35.5702L103.111 35.5669Z" fill="white"/>
<path d="M8.75188 34.1239C8.36321 33.0029 7.58588 32.2402 6.49961 31.7668C5.76878 31.4512 4.99809 31.3296 4.20747 31.3263C2.96175 31.3197 1.71602 31.323 0.470297 31.3263C0.104884 31.3263 0.104884 31.3263 0.101562 31.7044C0.101562 31.78 0.101562 31.8523 0.101562 31.9279C0.104884 33.1344 0.104884 34.3475 0.104884 35.5573C0.104884 36.8624 0.104884 38.1675 0.104884 39.4759C0.104884 39.8606 0.111528 39.8408 0.480263 39.8408C1.65955 39.8408 2.84216 39.8408 4.02144 39.8408C4.37689 39.8408 4.72902 39.8244 5.08114 39.7784C5.84519 39.6765 6.56604 39.4398 7.2105 39.0157C8.02105 38.4831 8.55588 37.75 8.82164 36.8229C8.88475 36.5961 8.92794 36.366 8.95119 36.1359C9.02428 35.4521 8.97777 34.7781 8.75188 34.1239ZM6.42985 36.32C6.18735 37.1879 5.58275 37.6678 4.71573 37.8552C4.50645 37.9012 4.29384 37.921 4.07792 37.921C3.66932 37.921 3.26404 37.921 2.85545 37.921C2.81226 37.921 2.76908 37.921 2.72589 37.921C2.58637 37.9111 2.55315 37.8815 2.54318 37.7533C2.53654 37.6678 2.53986 37.5824 2.53986 37.5002C2.53986 36.8525 2.53986 36.2049 2.53986 35.5573C2.53986 34.8899 2.53986 34.2193 2.53986 33.5519C2.53986 33.2593 2.54651 33.2495 2.8488 33.2495C3.38363 33.2495 3.92179 33.2297 4.45662 33.2725C4.73898 33.2955 5.00806 33.3645 5.26053 33.4829C5.87176 33.7656 6.27039 34.2259 6.43649 34.8735C6.5594 35.3567 6.56272 35.8433 6.42652 36.3233L6.42985 36.32Z" fill="white"/>
<path d="M70.5068 39.5611C70.035 38.8774 69.56 38.1936 69.085 37.5131C69.0318 37.4342 68.9753 37.3553 68.9255 37.2731C68.8823 37.2007 68.889 37.1547 68.9587 37.112C69.0385 37.0594 69.1248 37.0134 69.2046 36.9608C69.8756 36.5268 70.3008 35.9285 70.4602 35.1461C70.5267 34.8206 70.5333 34.4919 70.5068 34.1631C70.4337 33.2492 70.0184 32.526 69.2577 32.0033C68.9089 31.7633 68.5236 31.6055 68.1183 31.497C67.6366 31.3688 67.1483 31.326 66.65 31.3228C65.4906 31.3228 64.3313 31.3228 63.1719 31.3228C62.7401 31.3228 62.77 31.3228 62.77 31.7304C62.77 33.0158 62.77 34.3012 62.77 35.5833C62.77 36.8588 62.77 38.1311 62.77 39.4066C62.77 39.5118 62.77 39.6203 62.7799 39.7255C62.7833 39.7847 62.8231 39.8241 62.8829 39.8307C62.946 39.8373 63.0125 39.8406 63.0756 39.8406C63.6868 39.8406 64.2981 39.8406 64.9126 39.8406C65.195 39.8406 65.205 39.8307 65.205 39.5546C65.205 39.0352 65.205 38.5124 65.205 37.993C65.205 37.9075 65.2049 37.8221 65.2083 37.7399C65.2149 37.6281 65.2515 37.5854 65.3677 37.5854C65.7099 37.5788 66.0554 37.5821 66.3975 37.5821C66.4939 37.5821 66.5603 37.6281 66.6101 37.7037C66.66 37.7728 66.7098 37.8418 66.7563 37.9141C67.1549 38.4927 67.5602 39.068 67.9522 39.6532C68.0452 39.7913 68.1515 39.8504 68.3209 39.8472C68.9986 39.8406 69.673 39.8472 70.3506 39.8439C70.4337 39.8439 70.5499 39.88 70.5964 39.8143C70.6596 39.7189 70.5499 39.6433 70.5001 39.5677L70.5068 39.5611ZM66.9589 35.6885C66.8759 35.7017 66.7895 35.7049 66.7031 35.7049C66.2846 35.7049 65.866 35.7115 65.4475 35.7049C65.2348 35.7049 65.2116 35.6819 65.2083 35.4617C65.2049 35.1329 65.2083 34.8042 65.2083 34.4754C65.2083 34.1664 65.2083 33.8607 65.2083 33.5517C65.2083 33.476 65.2083 33.4037 65.2182 33.3281C65.2249 33.2722 65.2614 33.2328 65.3212 33.2262C65.3843 33.2196 65.4508 33.2163 65.5139 33.2163C65.8793 33.2163 66.2447 33.2163 66.6068 33.2163C66.846 33.2163 67.0785 33.2525 67.3011 33.3314C67.7595 33.4991 68.0053 33.8278 68.0518 34.3078C68.0518 34.3176 68.0518 34.3275 68.0518 34.3406C68.0984 35.1033 67.713 35.5734 66.9523 35.6819L66.9589 35.6885Z" fill="white"/>
<path d="M89.26 34.0023C89.1537 33.2429 88.8116 32.615 88.207 32.135C87.8781 31.872 87.5027 31.6912 87.1008 31.5597C86.556 31.3822 85.9912 31.3263 85.4199 31.323C84.2605 31.3197 83.1045 31.323 81.9451 31.323C81.5365 31.323 81.5332 31.323 81.5332 31.7241C81.5332 33.0193 81.5332 34.3113 81.5332 35.6066C81.5332 36.9018 81.5332 38.1511 81.5332 39.4266C81.5332 39.5318 81.5398 39.637 81.5498 39.7422C81.5531 39.7882 81.5864 39.8178 81.6329 39.8277C81.686 39.8375 81.7392 39.8408 81.7923 39.8408C82.4268 39.8408 83.058 39.8408 83.6925 39.8408C83.7456 39.8408 83.7988 39.8408 83.8519 39.831C83.9117 39.8244 83.9516 39.7882 83.9549 39.729C83.9615 39.6436 83.9649 39.5614 83.9649 39.4759C83.9649 38.9992 83.9649 38.5225 83.9649 38.0426C83.9649 37.9571 83.9649 37.8716 83.9682 37.7894C83.9781 37.6547 84.008 37.6218 84.1476 37.6185C84.5661 37.6152 84.9847 37.6119 85.4033 37.6185C85.7255 37.6185 86.0477 37.6021 86.3666 37.5527C86.9347 37.4673 87.4728 37.2963 87.9578 36.984C88.6289 36.5534 89.0574 35.9517 89.2202 35.1759C89.2999 34.788 89.3132 34.4001 89.2567 34.0056L89.26 34.0023ZM86.8151 34.6861C86.7619 35.1299 86.5228 35.429 86.1042 35.5901C85.9348 35.6559 85.7554 35.6986 85.5727 35.7019C85.1109 35.7085 84.6492 35.7118 84.1874 35.7085C83.9948 35.7085 83.9748 35.6822 83.9715 35.4784C83.9682 35.1397 83.9715 34.7978 83.9715 34.4592C83.9715 34.1502 83.9715 33.8445 83.9715 33.5355C83.9715 33.4829 83.9715 33.4303 83.9781 33.3777C83.9881 33.2659 84.018 33.2363 84.1442 33.2264C84.1874 33.2231 84.2306 33.2231 84.2738 33.2231C84.6492 33.2231 85.0246 33.2231 85.3999 33.2231C85.6391 33.2231 85.8717 33.2626 86.0942 33.3448C86.5261 33.5092 86.7686 33.8182 86.8217 34.2719C86.8383 34.4099 86.8383 34.548 86.8217 34.6861H86.8151Z" fill="white"/>
<path d="M101.93 34.2684C101.847 33.1244 101.295 32.2861 100.259 31.77C100.02 31.6516 99.7672 31.5629 99.5048 31.4938C99.033 31.3722 98.5547 31.3262 98.0697 31.3262C96.9203 31.3229 95.7742 31.3262 94.6248 31.3262C94.173 31.3262 94.1797 31.3064 94.1797 31.7601C94.1797 33.0324 94.1797 34.3079 94.1797 35.5802C94.1797 36.5664 94.1797 37.5526 94.1797 38.5422C94.1797 38.8808 94.1797 39.2227 94.1797 39.5613C94.183 39.8308 94.1996 39.844 94.4787 39.844C95.0899 39.844 95.7011 39.844 96.3124 39.844C96.3556 39.844 96.3987 39.844 96.4419 39.8407C96.5582 39.8308 96.5881 39.8013 96.5981 39.6796C96.6047 39.5941 96.6047 39.5087 96.6047 39.4265C96.6047 38.9498 96.6047 38.4698 96.6047 37.9931C96.6047 37.6217 96.6047 37.6184 96.9701 37.6184C97.3256 37.6184 97.6777 37.6184 98.0331 37.6184C98.3554 37.6184 98.6776 37.6019 98.9965 37.5559C99.5645 37.4704 100.103 37.3028 100.591 36.9938C101.242 36.5795 101.671 36.0009 101.85 35.2514C101.926 34.9292 101.956 34.6005 101.933 34.2717L101.93 34.2684ZM99.4151 34.9029C99.3254 35.2054 99.1294 35.4191 98.8437 35.5538C98.6577 35.6393 98.4617 35.6985 98.2557 35.7018C97.774 35.7116 97.2923 35.7116 96.8107 35.7116C96.6446 35.7116 96.6114 35.6755 96.6114 35.498C96.608 35.1594 96.6114 34.8207 96.6114 34.4821C96.6114 34.1764 96.6114 33.8674 96.6114 33.5616C96.6114 33.4893 96.6147 33.4137 96.6246 33.3414C96.6313 33.2822 96.6711 33.246 96.7276 33.2395C96.7907 33.2329 96.8572 33.2296 96.9203 33.2296C97.2857 33.2296 97.6478 33.2296 98.0132 33.2296C98.2391 33.2296 98.4617 33.2625 98.6776 33.3315C99.1128 33.4729 99.3719 33.7655 99.4582 34.2159C99.5014 34.4525 99.4881 34.6794 99.4217 34.9062L99.4151 34.9029Z" fill="white"/>
<path d="M80.6479 39.4002C79.4985 36.8294 78.3458 34.2586 77.1964 31.6878C77.1632 31.6089 77.1233 31.5333 77.0901 31.4577C77.0502 31.3722 76.9871 31.3262 76.8908 31.3262C76.8376 31.3262 76.7845 31.3262 76.7313 31.3262C76.14 31.3262 75.552 31.3262 74.9607 31.3262C74.6285 31.3262 74.6485 31.3196 74.5089 31.6221C74.4923 31.6615 74.4724 31.701 74.4558 31.7371C73.612 33.6307 72.7682 35.521 71.9212 37.4146C71.6089 38.1148 71.2966 38.8117 70.9877 39.512C70.9478 39.6073 70.8714 39.6961 70.9046 39.8144C70.9345 39.8243 70.9644 39.8407 70.9943 39.8407C71.7119 39.8407 72.4327 39.8407 73.1503 39.844C73.2765 39.844 73.3463 39.7881 73.3894 39.6763C73.5389 39.3016 73.6951 38.9301 73.8479 38.5553C73.8844 38.4666 73.9243 38.3811 73.9608 38.2923C73.9907 38.2266 74.0405 38.197 74.1103 38.1937C74.1967 38.1937 74.283 38.1904 74.3661 38.1904C75.16 38.1904 75.954 38.1904 76.7479 38.1904C76.9838 38.1904 77.2196 38.1937 77.4555 38.1904C77.5817 38.1904 77.6548 38.2397 77.698 38.3515C77.8309 38.6868 77.9704 39.0221 78.1066 39.3542C78.1564 39.4725 78.2062 39.5909 78.2528 39.7059C78.2893 39.7914 78.3458 39.844 78.4454 39.8407C78.5218 39.8407 78.5949 39.8407 78.6713 39.8407C79.2294 39.8407 79.7875 39.8407 80.3456 39.8407C80.8638 39.8407 80.8605 39.89 80.6445 39.4035L80.6479 39.4002ZM76.6184 36.4053C76.0835 36.4053 75.5454 36.4053 75.0106 36.4053C74.9574 36.4053 74.9042 36.4053 74.8511 36.3955C74.788 36.3889 74.7548 36.3461 74.7714 36.287C74.788 36.2245 74.8079 36.1653 74.8312 36.1062C75.1235 35.3895 75.4158 34.6695 75.7082 33.9529C75.7314 33.8937 75.7447 33.8312 75.8178 33.7852C75.8909 33.8345 75.9041 33.9003 75.9274 33.9562C76.2197 34.6728 76.5121 35.3895 76.8044 36.1094C76.9173 36.3856 76.9074 36.3987 76.6217 36.402L76.6184 36.4053Z" fill="white"/>
<path d="M73.8163 12.1208V16.1907H64.1926V25.7145H60.0768V16.1907H50.4531V12.1208H60.0768V2.59375H64.1926V12.1208H73.8163Z" fill="#363636"/>
<path d="M74.5526 11.4074V15.4773H64.929V25.0011H60.8131V15.4773H51.1895V11.4074H60.8131V1.88037H64.929V11.4074H74.5526Z" fill="#707070"/>
<path d="M75.4237 10.5954V14.6653H65.8001V24.1891H61.6842V14.6653H52.0605V10.5954H61.6842V1.06836H65.8001V10.5954H75.4237Z" fill="#A4A4A4"/>
<path d="M76.4608 9.52707V13.597H66.8372V23.1207H62.7213V13.597H53.0977V9.52707H62.7213V0H66.8372V9.52707H76.4608Z" fill="white"/>
</g>
<defs>
<clipPath id="clip0_523_873">
<rect width="126.914" height="40.0183" fill="white"/>
</clipPath>
</defs>
</svg>
