<svg width="118" height="46" viewBox="0 0 118 46" fill="none" xmlns="http://www.w3.org/2000/svg">
<path d="M21.928 45.9864C21.584 45.9043 21.2486 45.7832 20.9002 45.7443C15.9354 45.1736 11.5891 43.2411 7.90031 39.8993C3.64103 36.0429 1.13686 31.27 0.518438 25.5763C-0.143535 19.4373 1.45478 13.9035 5.31774 9.05279C9.31136 4.04646 14.5767 1.21904 20.9394 0.453827C25.0202 -0.0390246 29.0007 0.531646 32.7678 2.20042C39.5139 5.1878 44.0562 10.1768 45.9333 17.2756C47.9105 24.7462 46.3818 31.6245 41.4214 37.6036C37.4931 42.3376 32.3541 45.0223 26.1917 45.7443C25.7083 45.8005 25.2335 45.9043 24.7545 45.9864H21.928ZM22.7381 33.1852C22.7816 32.861 22.8644 32.5367 22.8644 32.2125C22.8731 24.6209 22.8644 17.0335 22.8731 9.44189C22.8731 9.04415 22.9341 8.64641 22.9646 8.25299C23.0037 7.7904 23.0952 7.31917 22.725 6.92575C21.8584 6.89116 20.9917 6.83928 20.125 6.84361C20.0118 6.84361 19.8158 7.13326 19.8028 7.30187C19.7592 7.85525 19.7766 8.41295 19.7853 8.96633C19.8202 11.4306 19.8637 13.8948 19.9029 16.3548C19.9029 16.6012 19.9029 16.8433 19.9029 17.2238C19.6852 17.0508 19.6068 17.0033 19.5545 16.9384C18.2915 15.4426 16.6584 14.6946 14.7204 14.4871C10.6789 14.0548 7.5519 16.1386 6.437 19.835C5.60953 22.5803 5.59211 25.3515 6.25844 28.127C6.71572 30.0249 7.64336 31.6634 9.30265 32.7659C11.5237 34.2488 13.9713 34.3006 16.4668 33.6046C17.6818 33.2674 18.6879 32.5713 19.4761 31.577C19.5676 31.4646 19.7113 31.3954 19.8332 31.3046C19.8986 31.4343 19.9987 31.5597 20.0249 31.698C20.0989 32.0914 20.1425 32.4892 20.1991 32.8826C20.3079 33.6651 20.3384 33.6911 21.1136 33.6954C21.4925 33.6954 21.8758 33.6738 22.2547 33.6781C22.6074 33.6824 22.7294 33.4922 22.7381 33.1809V33.1852ZM33.4472 33.9807C33.9394 33.9807 34.4358 34.011 34.9236 33.9764C36.5568 33.851 38.0985 33.4662 39.4398 32.4676C41.7785 30.721 42.0268 26.4842 39.344 24.8154C38.2727 24.1496 37.0924 23.6395 35.9384 23.112C34.5404 22.4679 33.0858 21.9361 31.7096 21.2487C30.8037 20.7991 30.3203 19.9604 30.4684 18.9271C30.6208 17.8766 31.4178 17.3751 32.3672 17.0724C32.4107 17.0595 32.4543 17.0508 32.4978 17.0422C33.5997 16.7828 34.7189 16.6704 35.8295 16.8909C36.9879 17.1243 38.129 17.4529 39.2743 17.7555C39.5705 17.8333 39.8362 17.9501 40.006 17.5739C40.2238 17.0854 40.4502 16.6012 40.6723 16.117C40.816 15.8057 40.7072 15.6069 40.4023 15.4901C40.2542 15.4339 40.1149 15.3691 39.9625 15.3215C37.7022 14.5606 35.3896 14.2407 33.0117 14.552C31.7313 14.7206 30.5424 15.1313 29.4536 15.8576C27.1803 17.3794 27.2456 20.8639 28.7525 22.3338C29.7062 23.2677 30.8429 23.847 32.0362 24.3571C33.2077 24.8586 34.4271 25.2607 35.5769 25.8011C36.3564 26.1643 37.1534 26.5923 37.7806 27.1673C38.9521 28.2394 38.6559 30.1417 37.2667 30.9155C36.8224 31.1619 36.326 31.3478 35.8295 31.4559C34.2529 31.8061 32.6633 31.7456 31.1042 31.3522C30.194 31.123 29.3099 30.8031 28.4258 30.4875C27.7639 30.2497 27.7159 30.2627 27.7072 30.976C27.7029 31.3089 27.7072 31.6418 27.7072 31.9747C27.7072 32.9129 27.716 32.9302 28.6262 33.2544C30.1853 33.8121 31.7923 34.0369 33.4472 33.9807Z" fill="white"/>
<path d="M117.566 18.6634C115.933 18.6721 114.3 18.6764 112.662 18.6851C111.909 18.6851 111.874 18.7326 112.013 19.433C112.292 20.8683 113.241 21.6292 114.726 21.5384C115.323 21.5038 115.911 21.3309 116.508 21.2444C116.708 21.2142 117 20.8899 117.109 21.3006C117.196 21.6292 117.261 22.0486 116.782 22.1869C116.312 22.3252 115.833 22.4333 115.349 22.5198C115.066 22.5673 114.77 22.5544 114.478 22.55C112.279 22.5284 110.863 21.2098 110.715 19.0352C110.65 18.0928 110.733 17.1719 111.146 16.3029C111.778 14.98 113.023 14.2883 114.539 14.4093C115.954 14.5261 116.921 15.3518 117.335 16.8001C117.387 16.986 117.487 17.1546 117.566 17.3319V18.6634ZM114.09 17.7166C114.604 17.7166 115.118 17.6994 115.628 17.721C116.063 17.7426 116.155 17.5524 116.111 17.1589C115.989 16.0652 115.227 15.3561 114.156 15.3778C113.058 15.3951 112.078 16.29 112.035 17.3016C112.017 17.6475 112.2 17.7166 112.483 17.7166C113.019 17.7166 113.555 17.7166 114.09 17.7166Z" fill="white"/>
<path d="M99.0732 26.774C99.635 26.1428 100.258 25.758 101.05 25.6456C102.575 25.4251 103.89 26.0866 104.469 27.5089C105.088 29.0177 105.066 30.5568 104.399 32.0397C103.611 33.7993 101.133 34.357 99.5871 33.1724C99.4347 33.0557 99.2866 32.926 99.0253 32.7141C99.0253 33.3453 99.0253 33.8641 99.0253 34.3829C99.0253 35.1135 99.0079 35.8485 99.0296 36.5791C99.0427 37.0547 98.8293 37.1887 98.3807 37.1887C97.9322 37.1887 97.8015 36.9898 97.8059 36.5791C97.8146 34.4953 97.8059 32.4072 97.8059 30.3234C97.8059 29.035 97.8015 27.751 97.8102 26.4627C97.8102 26.1773 97.697 25.8012 98.1847 25.7493C98.6203 25.7018 98.8685 25.8574 98.899 26.32C98.9077 26.4411 98.9861 26.5578 99.0732 26.774ZM103.707 29.7008C103.555 29.061 103.467 28.3952 103.237 27.7856C102.919 26.9555 102.139 26.5967 101.085 26.6659C100.14 26.7264 99.5261 27.1458 99.2692 27.9845C98.9033 29.1863 98.9425 30.3968 99.3476 31.5814C99.6393 32.4374 100.358 32.7228 101.19 32.7876C102.013 32.8525 102.684 32.5628 103.123 31.8408C103.52 31.188 103.637 30.4747 103.711 29.7051L103.707 29.7008Z" fill="white"/>
<path d="M61.0034 21.5038C60.8728 21.6033 60.7682 21.6767 60.6724 21.7589C58.7344 23.3844 56.0038 22.5371 55.3679 20.1074C55.0805 19.0136 55.0892 17.9069 55.3897 16.8174C56.043 14.4439 58.6734 13.6052 60.6115 15.14C60.7116 15.2221 60.8162 15.2956 61.0252 15.4556C61.0252 15.1529 61.0252 14.9454 61.0252 14.7379C61.0121 13.7609 61.0078 12.7838 60.9729 11.8111C60.9555 11.3355 61.1689 11.2058 61.6175 11.2058C62.0661 11.2058 62.1967 11.3917 62.1967 11.8067C62.188 14.0462 62.1967 16.29 62.1967 18.5294C62.1967 19.5713 62.2054 20.6175 62.188 21.6595C62.1836 21.9578 62.3317 22.3512 61.783 22.4117C61.2821 22.4636 61.1776 22.1739 61.1167 21.7892C61.1036 21.707 61.0557 21.6335 61.0034 21.5081V21.5038ZM61.0426 18.5251C60.9512 17.9415 60.9163 17.3405 60.7595 16.7698C60.5026 15.8231 59.7666 15.4513 58.8389 15.3907C57.9592 15.3345 57.2232 15.6242 56.8487 16.4499C56.239 17.7901 56.2172 19.1693 56.8225 20.5095C57.2058 21.3655 57.9897 21.6249 58.8869 21.5643C59.9277 21.4952 60.5461 21.0758 60.7944 20.1809C60.9381 19.6535 60.9599 19.0914 61.0426 18.5208V18.5251Z" fill="white"/>
<path d="M103.194 15.5549C104.2 14.5216 105.302 14.2579 106.547 14.487C107.867 14.7248 108.581 15.3906 108.647 16.7049C108.729 18.4558 108.677 20.211 108.69 21.9619C108.69 22.4461 108.364 22.3986 108.046 22.4072C107.723 22.4159 107.453 22.3726 107.475 21.9533C107.484 21.7977 107.475 21.642 107.475 21.4864C107.475 20.1764 107.453 18.8665 107.479 17.5565C107.519 15.6889 106.608 15.1528 104.718 15.516C104.052 15.6457 103.603 16.1039 103.434 16.7481C103.299 17.2582 103.22 17.7943 103.207 18.3218C103.172 19.4977 103.181 20.6736 103.198 21.8495C103.207 22.3035 102.994 22.4072 102.584 22.4072C102.171 22.4072 101.975 22.2992 101.975 21.8452C101.988 18.4947 101.988 15.1398 101.975 11.7893C101.975 11.2965 102.188 11.197 102.624 11.197C103.072 11.197 103.203 11.3743 103.198 11.7936C103.181 12.9912 103.194 14.1887 103.194 15.5462V15.5549Z" fill="white"/>
<path d="M74.3688 30.5826C74.3688 31.404 74.3688 32.2254 74.3688 33.0425C74.3688 33.3235 74.347 33.5786 73.9638 33.6045C73.6197 33.6262 73.4325 33.4965 73.3279 33.1592C73.1494 32.567 73.132 32.5713 72.666 32.9993C71.8037 33.7904 70.0398 34.0152 69.0208 33.4575C67.6925 32.7312 67.54 30.6345 68.7551 29.7093C69.4955 29.1473 70.3708 28.9743 71.2767 28.9181C71.7688 28.8879 72.2609 28.8879 72.7487 28.836C72.8881 28.8187 73.0928 28.6933 73.132 28.5723C73.4107 27.7206 72.7574 26.6873 71.8603 26.6787C71.1373 26.67 70.4057 26.843 69.6914 26.9986C69.3779 27.0634 69.1601 27.1715 68.9946 26.7824C68.8335 26.3977 68.9641 26.2161 69.3213 26.0734C70.4318 25.6324 71.5641 25.4811 72.7356 25.7838C73.5762 25.9999 74.1293 26.5447 74.2251 27.3963C74.3427 28.4512 74.3601 29.5147 74.4211 30.5739C74.4036 30.5739 74.3819 30.5739 74.3645 30.5739L74.3688 30.5826ZM70.7846 32.7918C72.6442 32.7183 73.1189 31.6158 73.1537 30.2756C73.1624 30.0119 73.1015 29.7439 72.7661 29.7828C71.8864 29.8779 70.998 29.9644 70.1357 30.1546C69.8395 30.2194 69.5129 30.5307 69.3605 30.8117C68.803 31.8666 69.4955 32.8047 70.7846 32.7918Z" fill="white"/>
<path d="M68.2657 18.6808C67.5253 18.6808 66.785 18.6938 66.049 18.6808C65.6309 18.6721 65.5046 18.8278 65.5568 19.2428C65.7528 20.7559 66.7675 21.6379 68.3179 21.5385C68.9146 21.4995 69.5025 21.3223 70.0992 21.2315C70.2995 21.2012 70.6 20.8986 70.6958 21.3093C70.7655 21.612 70.8352 21.9924 70.4127 22.1697C70.391 22.1783 70.3735 22.1913 70.3518 22.1956C68.993 22.6452 67.6211 22.7663 66.2841 22.1826C65.1736 21.6984 64.5856 20.7646 64.381 19.6016C64.1937 18.5554 64.2416 17.5178 64.6379 16.5192C65.2476 14.9844 66.6979 14.1759 68.3571 14.4353C69.9206 14.6774 70.9528 15.8793 71.0399 17.5481C71.0805 18.3032 70.7176 18.6808 69.9511 18.6808C69.3893 18.6808 68.8318 18.6808 68.27 18.6808H68.2657ZM67.6211 17.7124C68.1568 17.7124 68.6925 17.7124 69.2325 17.7124C69.5112 17.7124 69.6942 17.6432 69.7072 17.306C69.7333 16.571 69.2325 15.7712 68.5444 15.5162C67.2074 15.0147 65.792 15.8793 65.6134 17.2887C65.5699 17.6346 65.7049 17.721 66.0098 17.7167C66.5454 17.708 67.0811 17.7167 67.6211 17.7167V17.7124Z" fill="white"/>
<path d="M78.4262 21.4086C77.59 22.4116 76.5492 22.6191 75.4081 22.537C73.9492 22.4289 73.1087 21.6983 73.0303 20.2456C72.9388 18.5207 72.978 16.787 72.9475 15.0577C72.9388 14.6427 73.1479 14.5216 73.5311 14.5346C73.8882 14.5433 74.2279 14.5303 74.2061 15.0318C74.1974 15.209 74.2061 15.3863 74.2061 15.5636C74.2061 16.9167 74.1974 18.2699 74.2061 19.6231C74.2192 20.8768 74.646 21.4216 75.6782 21.5599C76.9803 21.7328 77.9689 21.1881 78.2607 20.0814C78.374 19.6577 78.4132 19.2081 78.4219 18.7671C78.4436 17.6344 78.4306 16.506 78.4306 15.3733C78.4306 14.5692 78.448 14.5476 79.0185 14.5433C79.6108 14.5433 79.6413 14.5735 79.6457 15.3387C79.6457 17.4485 79.65 19.5539 79.6413 21.6637C79.6413 21.9577 79.8024 22.3597 79.245 22.4159C78.7311 22.4678 78.5612 22.2214 78.5395 21.7718C78.5395 21.7069 78.5003 21.6464 78.4219 21.4172L78.4262 21.4086Z" fill="white"/>
<path d="M94.1467 32.6319C93.2452 33.6565 92.1739 33.8294 91.0111 33.7343C89.7133 33.6262 88.9642 32.9647 88.7377 31.6894C88.6898 31.4084 88.6593 31.1187 88.6593 30.8291C88.6506 29.411 88.655 27.9887 88.6593 26.5706C88.6593 25.84 88.7377 25.7406 89.2908 25.7449C89.8134 25.7449 89.8657 25.8141 89.87 26.5361C89.87 27.712 89.87 28.8879 89.87 30.0638C89.87 30.2627 89.87 30.4616 89.87 30.6648C89.8875 32.0223 90.3622 32.6708 91.4117 32.7788C92.8794 32.9302 93.7809 32.3379 94.0422 31.0193C94.1206 30.6302 94.1511 30.2281 94.1554 29.8304C94.1729 28.6545 94.1729 27.4785 94.1554 26.3026C94.1511 25.853 94.3601 25.7276 94.7695 25.7363C95.1353 25.7449 95.3705 25.8184 95.3705 26.2507C95.3618 28.5377 95.3705 30.8204 95.3705 33.1074C95.3705 33.3798 95.3008 33.5916 94.9698 33.6046C94.6737 33.6132 94.3688 33.6435 94.3035 33.2371C94.2774 33.0901 94.2295 32.9431 94.1511 32.6362L94.1467 32.6319Z" fill="white"/>
<path d="M109.005 33.838C108.23 33.7256 107.677 33.6564 107.128 33.5613C106.958 33.531 106.702 33.4705 106.654 33.3538C106.536 33.0727 106.514 32.7485 106.458 32.4416C106.654 32.4416 106.858 32.4113 107.05 32.4416C107.777 32.5453 108.496 32.7053 109.223 32.7701C109.541 32.8004 109.894 32.6966 110.199 32.5712C111.07 32.2081 111.174 31.2613 110.395 30.7382C110.011 30.4788 109.563 30.3145 109.136 30.1156C108.548 29.8433 107.925 29.6314 107.377 29.2985C106.053 28.4944 106.07 26.7781 107.429 26.0561C108.788 25.3384 110.207 25.5589 111.601 26.0215C111.923 26.1296 111.793 26.363 111.705 26.5706C111.601 26.817 111.54 27.0548 111.148 26.977C110.429 26.83 109.702 26.7348 108.975 26.657C108.74 26.6311 108.483 26.6959 108.256 26.7738C107.899 26.8991 107.642 27.1369 107.607 27.5433C107.573 27.9324 107.712 28.261 108.06 28.4425C108.513 28.676 108.992 28.8662 109.463 29.0781C110.011 29.3245 110.595 29.519 111.105 29.8303C112.494 30.6733 112.411 32.6577 110.93 33.3408C110.281 33.6391 109.528 33.7126 109.005 33.8423V33.838Z" fill="white"/>
<path d="M89.6848 22.6235C89.0533 22.5024 88.4131 22.4073 87.7903 22.2431C87.3809 22.135 87.1675 21.5686 87.3809 21.2228C87.4288 21.1449 87.6422 21.119 87.7642 21.1493C88.265 21.2617 88.7528 21.4778 89.258 21.5124C89.8503 21.5513 90.46 21.4908 91.0436 21.3827C91.4878 21.3006 91.7752 20.9547 91.8275 20.4878C91.8754 20.0425 91.662 19.701 91.2874 19.4891C90.8432 19.2384 90.3642 19.0395 89.9025 18.8234C89.3364 18.5596 88.731 18.3564 88.2128 18.0192C86.928 17.1848 87.0456 15.4426 88.4392 14.7898C89.7719 14.1629 91.1394 14.3272 92.4938 14.7898C92.8074 14.8978 92.7725 15.0967 92.6506 15.3129C92.5243 15.5463 92.5025 15.8879 92.0539 15.7452C91.5444 15.5852 91.0174 15.4512 90.4861 15.408C90.0506 15.3734 89.5802 15.4209 89.1709 15.5593C88.3695 15.8317 88.2519 16.679 88.9444 17.1589C89.3407 17.4313 89.8198 17.5999 90.264 17.8031C90.8737 18.0841 91.5226 18.2916 92.0844 18.6418C93.3256 19.4156 93.3038 21.1882 92.0844 22.001C91.3615 22.4808 90.5427 22.5587 89.6848 22.6192V22.6235Z" fill="white"/>
<path d="M57.5782 33.8337C56.8901 33.7169 56.2673 33.6521 55.6663 33.4921C55.4616 33.4403 55.2178 33.1809 55.1699 32.9733C55.0261 32.3854 55.1916 32.3032 55.7796 32.4329C56.5156 32.5929 57.269 32.7053 58.0181 32.7658C58.336 32.7918 58.6888 32.675 58.9849 32.5367C59.7209 32.1952 59.8298 31.2657 59.1722 30.7987C58.741 30.4918 58.2315 30.2972 57.7481 30.0724C57.2429 29.8347 56.7116 29.6444 56.2194 29.3894C55.466 28.9916 55.0479 28.3864 55.1394 27.4958C55.2265 26.6311 55.7491 26.1383 56.5199 25.8702C57.735 25.4465 58.9414 25.5676 60.139 25.9653C60.4569 26.0691 60.5745 26.2464 60.4221 26.5663C60.2958 26.8343 60.2087 27.0591 59.7862 26.964C59.0981 26.8041 58.3839 26.7349 57.6784 26.6484C57.5042 26.6268 57.3169 26.6614 57.1471 26.7089C56.7159 26.8257 56.337 27.0289 56.2717 27.5174C56.2151 27.9713 56.4807 28.2956 56.8509 28.4901C57.3648 28.7582 57.9136 28.9614 58.4405 29.1948C58.8673 29.385 59.3072 29.5536 59.7166 29.7785C60.4743 30.1935 60.8358 30.8506 60.7661 31.7066C60.6965 32.567 60.2 33.1722 59.4117 33.4532C58.8151 33.6651 58.1574 33.7213 57.5695 33.8337H57.5782Z" fill="white"/>
<path d="M94.4872 18.4949C94.5569 18.015 94.5874 17.5222 94.6963 17.0509C95.0926 15.3951 96.2946 14.431 98.0192 14.4137C98.5723 14.4094 99.1341 14.4959 99.6741 14.6083C100.245 14.7293 100.271 14.859 100.079 15.4038C99.9703 15.7194 99.8178 15.7756 99.4825 15.7194C98.851 15.6199 98.1978 15.5205 97.5706 15.5767C96.7649 15.6502 96.2467 16.1863 95.9941 16.9428C95.6631 17.9372 95.65 18.9532 95.9505 19.9561C96.2772 21.0543 97.1308 21.6249 98.2849 21.5385C98.7291 21.5039 99.1646 21.3785 99.6045 21.3223C99.7787 21.3007 99.9616 21.3482 100.14 21.3612C100.088 21.6509 100.053 21.9448 99.9703 22.2215C99.9529 22.2864 99.7787 22.3253 99.6741 22.3512C96.9653 23.0386 94.6092 22.0443 94.5264 18.8321C94.5264 18.7197 94.5264 18.6116 94.5264 18.4992C94.509 18.4992 94.4916 18.4992 94.4785 18.4949H94.4872Z" fill="white"/>
<path d="M82.3572 18.136C82.3572 17.4486 82.3442 16.7568 82.3616 16.0694C82.3703 15.6717 82.2701 15.4382 81.8042 15.4512C81.6256 15.4512 81.4427 15.2999 81.2598 15.2178C81.3991 15.0448 81.5037 14.7725 81.6779 14.7249C82.2832 14.5476 82.4835 14.1067 82.6403 13.5663C82.7405 13.2291 82.6926 12.6324 83.2936 12.7448C83.7988 12.84 83.5549 13.3328 83.568 13.6484C83.6028 14.5304 83.5854 14.5304 84.4608 14.5347C84.7961 14.5347 85.1314 14.5476 85.4711 14.5347C85.8239 14.5217 85.9415 14.6946 85.9371 15.0232C85.9371 15.3302 85.8065 15.4685 85.4929 15.4642C85.0443 15.4555 84.5958 15.4815 84.1472 15.4642C83.7509 15.4469 83.5723 15.5939 83.5767 15.9959C83.5897 17.3707 83.5549 18.7499 83.6028 20.1247C83.642 21.2444 84.1951 21.6594 85.3143 21.5513C85.5713 21.5254 85.9154 21.3265 85.9633 21.8323C86.0068 22.256 85.8108 22.4679 85.4058 22.4895C84.9616 22.5154 84.5043 22.5543 84.0688 22.4981C83.1847 22.3814 82.575 21.7934 82.4574 20.8639C82.3442 19.9647 82.3529 19.0482 82.3093 18.1403C82.3224 18.1403 82.3398 18.1403 82.3529 18.1403L82.3572 18.136Z" fill="white"/>
<path d="M63.0972 29.3894C63.0972 28.702 63.0841 28.0146 63.1015 27.3229C63.1146 26.8949 62.997 26.6484 62.5049 26.6571C62.3438 26.6571 62.1826 26.5014 62.0215 26.4193C62.1217 26.268 62.1957 26.0172 62.3351 25.9783C63.0493 25.7708 63.2845 25.2304 63.4282 24.5992C63.4587 24.4695 63.4761 24.3095 63.5588 24.2274C63.6721 24.115 63.855 23.9896 63.9856 24.0112C64.1032 24.0285 64.26 24.2231 64.2861 24.3571C64.334 24.6381 64.3166 24.9321 64.3123 25.2218C64.3035 25.5849 64.4647 25.7492 64.8349 25.7405C65.2834 25.7319 65.732 25.7449 66.1806 25.7405C66.5072 25.7405 66.6814 25.8746 66.6858 26.2161C66.6858 26.5706 66.4942 26.6744 66.1762 26.67C65.7277 26.6614 65.2791 26.6787 64.8305 26.67C64.456 26.6614 64.3123 26.8343 64.3166 27.1932C64.3253 28.568 64.2948 29.9471 64.3297 31.3219C64.3602 32.4243 64.9089 32.8566 66.0325 32.7745C66.2808 32.7572 66.6379 32.5108 66.7119 33.0166C66.7729 33.4446 66.6161 33.6435 66.1153 33.704C65.8932 33.7343 65.6667 33.7386 65.4446 33.7386C63.9508 33.7429 63.1974 33.0598 63.119 31.5813C63.0798 30.8506 63.1146 30.1157 63.1146 29.3851C63.1146 29.3851 63.1146 29.3851 63.1103 29.3851L63.0972 29.3894Z" fill="white"/>
<path d="M83.541 29.424C83.541 28.715 83.5279 28.0016 83.541 27.2926C83.5497 26.8949 83.4408 26.6657 82.9835 26.6614C82.8093 26.6614 82.6351 26.4842 82.4609 26.3891C82.5916 26.2334 82.6918 25.9913 82.8573 25.9351C83.4495 25.7406 83.7065 25.3299 83.811 24.7635C83.8371 24.6122 83.8589 24.4306 83.9547 24.3269C84.0854 24.1842 84.2727 24.0458 84.4556 24.0156C84.5296 24.0026 84.6951 24.275 84.7343 24.4393C84.7866 24.6511 84.743 24.8802 84.7517 25.1007C84.7691 25.6887 84.804 25.7233 85.4224 25.7362C85.8013 25.7449 86.1845 25.7449 86.5634 25.7449C86.8988 25.7449 87.0556 25.8919 87.0425 26.2334C87.0338 26.5447 86.8683 26.6657 86.5721 26.6657C86.1236 26.6657 85.675 26.6787 85.2264 26.6744C84.8867 26.6744 84.743 26.83 84.743 27.1629C84.7517 28.6069 84.7125 30.0509 84.7648 31.4948C84.7996 32.4978 85.3832 32.848 86.62 32.7615C86.7768 32.7486 87.0381 32.7832 87.0773 32.8696C87.147 33.0339 87.1383 33.2674 87.073 33.4446C87.0294 33.557 86.8334 33.6781 86.7071 33.6824C86.1061 33.6954 85.4921 33.7429 84.9085 33.6305C84.1812 33.4878 83.8023 32.9215 83.6412 32.2211C83.6063 32.0698 83.5584 31.9185 83.5541 31.7629C83.5454 30.9847 83.5541 30.2065 83.5541 29.4326C83.5454 29.4326 83.541 29.4326 83.5323 29.4326L83.541 29.424Z" fill="white"/>
<path d="M77.9253 27.072C78.3564 26.6829 78.6961 26.3284 79.0794 26.0387C79.6238 25.6323 80.2683 25.5545 80.9346 25.6367C81.2264 25.6712 81.3919 25.8182 81.3048 26.1338C81.2308 26.4062 81.3135 26.765 80.8127 26.7694C78.8747 26.778 78.0124 27.6427 78.0037 29.5622C77.9993 30.6689 78.0037 31.78 77.9993 32.8868C77.9993 33.5266 77.9253 33.6044 77.4114 33.6088C76.8801 33.6131 76.793 33.5309 76.793 32.9214C76.7886 30.7468 76.793 28.5765 76.793 26.4019C76.793 26.0906 76.7625 25.7707 77.2372 25.7404C77.7119 25.7102 77.7903 26.0041 77.8382 26.3586C77.8643 26.5748 77.8948 26.7953 77.934 27.072H77.9253Z" fill="white"/>
<path d="M22.7386 33.1894C22.7299 32.9905 22.7168 32.7917 22.7168 32.5928C22.7168 24.1711 22.7168 15.7494 22.7168 7.32767C22.7168 7.19365 22.7212 7.06395 22.7255 6.92993C23.0957 7.31903 23.0042 7.79458 22.965 8.25717C22.9302 8.65491 22.8736 9.05265 22.8736 9.44607C22.8692 17.0377 22.8736 24.625 22.8649 32.2167C22.8649 32.5409 22.7821 32.8652 22.7386 33.1894Z" fill="#959595"/>
<path d="M19.834 24.5474C19.834 25.8487 19.699 27.1198 19.3288 28.3692C18.78 30.2023 17.5171 31.2398 15.6487 31.5295C14.5164 31.7024 13.3623 31.7586 12.2561 31.3782C10.9801 30.9372 10.0437 30.0553 9.58645 28.8145C8.45848 25.7407 8.41929 22.6279 9.70404 19.593C10.6578 17.3362 12.6176 16.6056 14.9911 16.8391C15.1479 16.8564 15.3003 16.8909 15.4527 16.9169C17.5345 17.2368 18.8976 18.4905 19.368 20.5225C19.4681 20.9548 19.5814 21.3871 19.6293 21.8281C19.7207 22.7317 19.7686 23.6395 19.8383 24.5474H19.834Z" fill="white"/>
</svg>
