<svg width="49" height="50" viewBox="0 0 49 50" fill="none" xmlns="http://www.w3.org/2000/svg">
<path fill-rule="evenodd" clip-rule="evenodd" d="M28.4093 8.62004C25.7145 7.93113 22.8927 7.91018 20.188 8.55901C18.9264 8.87062 17.7037 9.32287 16.5427 9.90728C13.0082 11.6982 10.2132 14.6745 8.64471 18.3173C7.07619 21.9602 6.8336 26.0388 7.95921 29.8424C9.08482 33.646 11.5073 36.9335 14.8044 39.1321C18.1016 41.3306 22.0645 42.3008 26.0025 41.8736C29.9406 41.4464 33.6042 39.6489 36.3549 36.7943C39.1056 33.9398 40.769 30.209 41.0554 26.2523C41.3418 22.2955 40.2329 18.3635 37.922 15.1414C35.6111 11.9194 32.2446 9.61155 28.4093 8.62004ZM29.0131 22.1305C29.0098 23.0878 28.7234 24.0226 28.19 24.817C27.6565 25.6114 26.9001 26.2296 26.016 26.5937C25.132 26.9577 24.1601 27.0513 23.2231 26.8625C22.286 26.6737 21.4258 26.2111 20.7511 25.533C20.0764 24.855 19.6174 23.9919 19.4321 23.0527C19.2468 22.1136 19.3436 21.1405 19.7101 20.2564C20.0767 19.3723 20.6966 18.6168 21.4915 18.0852C22.2865 17.5537 23.2209 17.2701 24.1767 17.2701C24.8133 17.2701 25.4435 17.3959 26.0314 17.6404C26.6192 17.8848 27.1531 18.2431 27.6025 18.6947C28.0518 19.1462 28.4077 19.6821 28.6497 20.2717C28.8918 20.8613 29.0153 21.493 29.0131 22.1305ZM10.2881 30.4531C9.70459 28.9715 9.3641 27.4051 9.27983 25.8147L8.0001 25.8923C8.0001 25.6038 8.0001 25.3375 8.0001 25.0212C7.99773 22.0229 8.82473 19.0826 10.3894 16.5264C11.954 13.9702 14.1951 11.898 16.864 10.5398L17.418 11.6495C18.824 10.9321 20.335 10.4433 21.8943 10.2013C18.8342 17.3908 14.9386 24.1939 10.2881 30.4698V30.4531ZM32.3426 37.5773L33.0351 38.626C30.403 40.3407 27.3305 41.2534 24.1906 41.2534C21.0506 41.2534 17.9782 40.3407 15.3461 38.626L16.0496 37.5607C14.7154 36.6908 13.5295 35.6117 12.5373 34.3648C15.8613 30.9747 19.8667 28.9939 24.1712 28.9939C28.4757 28.9939 32.4811 30.9802 35.8051 34.387C34.8297 35.63 33.6605 36.7072 32.3426 37.5773ZM39.1124 25.8313C39.0273 27.4395 38.6811 29.023 38.0875 30.5197C33.4226 24.2285 29.5175 17.4064 26.4537 10.1958C28.0134 10.4401 29.5256 10.9269 30.9355 11.6384L31.4895 10.5287C34.1584 11.8869 36.3995 13.9591 37.9641 16.5153C39.5287 19.0715 40.3557 22.0118 40.3534 25.0101C40.3534 25.3042 40.3534 25.565 40.3534 25.8812L39.1124 25.8313Z" fill="url(#paint0_linear_505_745)"/>
<path fill-rule="evenodd" clip-rule="evenodd" d="M28.4093 8.62004C25.7145 7.93113 22.8927 7.91018 20.188 8.55901C18.9264 8.87062 17.7037 9.32287 16.5427 9.90728C13.0082 11.6982 10.2132 14.6745 8.64471 18.3173C7.07619 21.9602 6.8336 26.0388 7.95921 29.8424C9.08482 33.646 11.5073 36.9335 14.8044 39.1321C18.1016 41.3306 22.0645 42.3008 26.0025 41.8736C29.9406 41.4464 33.6042 39.6489 36.3549 36.7943C39.1056 33.9397 40.769 30.209 41.0554 26.2523C41.3418 22.2955 40.2329 18.3635 37.922 15.1414C35.6111 11.9194 32.2446 9.61155 28.4093 8.62004ZM29.0131 22.1305C29.0098 23.0878 28.7234 24.0226 28.19 24.817C27.6565 25.6114 26.9001 26.2296 26.016 26.5937C25.132 26.9577 24.1601 27.0513 23.2231 26.8625C22.286 26.6737 21.4258 26.2111 20.7511 25.533C20.0764 24.855 19.6174 23.9919 19.4321 23.0527C19.2468 22.1136 19.3436 21.1405 19.7101 20.2564C20.0767 19.3723 20.6966 18.6168 21.4915 18.0852C22.2865 17.5537 23.2209 17.2701 24.1767 17.2701C24.8133 17.2701 25.4435 17.3959 26.0314 17.6404C26.6192 17.8848 27.1531 18.2431 27.6025 18.6947C28.0518 19.1462 28.4077 19.6821 28.6497 20.2717C28.8918 20.8613 29.0153 21.493 29.0131 22.1305ZM10.2881 30.4531C9.70459 28.9715 9.3641 27.4051 9.27983 25.8147L8.0001 25.8923C8.0001 25.6038 8.0001 25.3375 8.0001 25.0212C7.99773 22.0229 8.82473 19.0826 10.3894 16.5264C11.954 13.9702 14.1951 11.898 16.864 10.5398L17.418 11.6495C18.824 10.9321 20.335 10.4433 21.8943 10.2013C18.8342 17.3908 14.9386 24.1939 10.2881 30.4698V30.4531ZM32.3426 37.5773L33.0351 38.626C30.403 40.3407 27.3305 41.2534 24.1906 41.2534C21.0506 41.2534 17.9782 40.3407 15.3461 38.626L16.0496 37.5607C14.7154 36.6908 13.5295 35.6117 12.5373 34.3648C15.8613 30.9747 19.8667 28.9939 24.1712 28.9939C28.4757 28.9939 32.4811 30.9802 35.8051 34.387C34.8297 35.63 33.6605 36.7072 32.3426 37.5773ZM39.1124 25.8313C39.0273 27.4395 38.6811 29.023 38.0875 30.5197C33.4226 24.2285 29.5175 17.4064 26.4537 10.1958C28.0134 10.4401 29.5256 10.9269 30.9355 11.6384L31.4895 10.5287C34.1584 11.8869 36.3995 13.9591 37.9641 16.5153C39.5287 19.0715 40.3557 22.0118 40.3534 25.0101C40.3534 25.3042 40.3534 25.565 40.3534 25.8812L39.1124 25.8313Z" fill="url(#paint1_linear_505_745)"/>
<path d="M24.1769 6.38397C27.8606 6.38397 31.4616 7.478 34.5245 9.52771C37.5874 11.5774 39.9747 14.4908 41.3844 17.8993C42.7941 21.3078 43.1629 25.0585 42.4443 28.677C41.7256 32.2955 39.9517 35.6193 37.3469 38.2281C34.7421 40.8369 31.4234 42.6135 27.8105 43.3332C24.1975 44.053 20.4526 43.6836 17.0493 42.2717C13.646 40.8599 10.7371 38.4689 8.69052 35.4013C6.64395 32.3337 5.55159 28.7272 5.55159 25.0378C5.55746 20.0923 7.52164 15.351 11.0133 11.854C14.5049 8.35704 19.2389 6.38984 24.1769 6.38397ZM24.1769 5.66822C20.3511 5.66493 16.6103 6.79813 13.4277 8.92449C10.245 11.0508 7.7636 14.0748 6.29726 17.6139C4.83092 21.1529 4.44555 25.048 5.18991 28.8064C5.93427 32.5649 7.7749 36.0177 10.479 38.7283C13.1831 41.4388 16.6291 43.2853 20.3811 44.034C24.1331 44.7827 28.0226 44.4001 31.5575 42.9346C35.0924 41.469 38.1138 38.9864 40.2397 35.8007C42.3655 32.615 43.5002 28.8695 43.5002 25.0378C43.5002 19.9036 41.4649 14.9794 37.8415 11.3473C34.2182 7.7153 29.3033 5.67263 24.1769 5.66822Z" fill="url(#paint2_linear_505_745)"/>
<path d="M24.1769 3.95372C28.3406 3.95372 32.4107 5.19028 35.8727 7.50702C39.3346 9.82377 42.0329 13.1167 43.6262 16.9693C45.2196 20.8219 45.6365 25.0612 44.8242 29.1511C44.0119 33.241 42.0069 36.9978 39.0628 39.9465C36.1186 42.8951 32.3676 44.9032 28.2839 45.7167C24.2003 46.5303 19.9675 46.1127 16.1207 44.5169C12.274 42.9211 8.9862 40.2187 6.673 36.7515C4.3598 33.2842 3.12514 29.2078 3.12514 25.0378C3.12514 19.4459 5.34309 14.0831 9.29106 10.1291C13.239 6.17507 18.5936 3.95372 24.1769 3.95372ZM24.1769 3.23242C19.8735 3.23242 15.6667 4.51035 12.0884 6.90465C8.51004 9.29894 5.72089 12.7021 4.07353 16.6838C2.42618 20.6656 1.99459 25.0471 2.83334 29.2745C3.6721 33.5018 5.74352 37.3852 8.78573 40.4336C11.8279 43.4821 15.7043 45.5586 19.9248 46.4008C24.1453 47.243 28.5203 46.813 32.4968 45.1651C36.4733 43.5173 39.8726 40.7256 42.265 37.143C44.6575 33.5604 45.9356 29.3478 45.9378 25.0378C45.9378 19.2576 43.6451 13.7141 39.5642 9.62691C35.4832 5.53969 29.9483 3.24352 24.1769 3.24352V3.23242Z" fill="url(#paint3_linear_505_745)"/>
<path d="M24.1763 1.54576C28.8153 1.54686 33.3497 2.92558 37.2063 5.50759C41.0629 8.0896 44.0685 11.7589 45.843 16.0517C47.6175 20.3444 48.0812 25.0677 47.1755 29.6243C46.2698 34.181 44.0354 38.3664 40.7548 41.6512C37.4742 44.9361 33.2947 47.1729 28.7448 48.0789C24.1949 48.9849 19.479 48.5194 15.1932 46.7412C10.9075 44.963 7.24449 41.9519 4.66735 38.0888C2.0902 34.2256 0.714663 29.6839 0.714663 25.0378C0.720532 18.8082 3.19444 12.8355 7.59324 8.43096C11.992 4.02646 17.9562 1.55017 24.1763 1.54576ZM24.1763 0.824463C19.3947 0.824463 14.7205 2.24455 10.7447 4.90515C6.76891 7.56575 3.67017 11.3474 1.84032 15.7718C0.0104756 20.1962 -0.468296 25.0647 0.464552 29.7616C1.3974 34.4586 3.69997 38.773 7.08109 42.1593C10.4622 45.5456 14.77 47.8517 19.4597 48.786C24.1495 49.7203 29.0105 49.2407 33.4282 47.4081C37.8458 45.5754 41.6217 42.472 44.2782 38.4901C46.9347 34.5082 48.3526 29.8268 48.3526 25.0378C48.3526 18.6161 45.8055 12.4573 41.2715 7.9164C36.7376 3.37551 30.5883 0.824463 24.1763 0.824463Z" fill="url(#paint4_linear_505_745)"/>
<defs>
<linearGradient id="paint0_linear_505_745" x1="7.25221" y1="25.0379" x2="41.1013" y2="25.0379" gradientUnits="userSpaceOnUse">
<stop stop-color="#BFE1FF"/>
<stop offset="0.35" stop-color="white"/>
<stop offset="1" stop-color="#D2EAFF"/>
</linearGradient>
<linearGradient id="paint1_linear_505_745" x1="7.25221" y1="25.0379" x2="41.1013" y2="25.0379" gradientUnits="userSpaceOnUse">
<stop stop-color="#BFE1FF"/>
<stop offset="0.35" stop-color="white"/>
<stop offset="1" stop-color="#D2EAFF"/>
</linearGradient>
<linearGradient id="paint2_linear_505_745" x1="4.83694" y1="25.0378" x2="43.5168" y2="25.0378" gradientUnits="userSpaceOnUse">
<stop stop-color="#BFE1FF"/>
<stop offset="0.35" stop-color="white"/>
<stop offset="1" stop-color="#D2EAFF"/>
</linearGradient>
<linearGradient id="paint3_linear_505_745" x1="2.41602" y1="25.0378" x2="45.9378" y2="25.0378" gradientUnits="userSpaceOnUse">
<stop stop-color="#BFE1FF"/>
<stop offset="0.35" stop-color="white"/>
<stop offset="1" stop-color="#D2EAFF"/>
</linearGradient>
<linearGradient id="paint4_linear_505_745" x1="1.0876e-05" y1="25.0378" x2="48.3526" y2="25.0378" gradientUnits="userSpaceOnUse">
<stop stop-color="#BFE1FF"/>
<stop offset="0.35" stop-color="white"/>
<stop offset="1" stop-color="#D2EAFF"/>
</linearGradient>
</defs>
</svg>
