<svg width="37" height="37" viewBox="0 0 37 37" fill="none" xmlns="http://www.w3.org/2000/svg">
<path d="M18.5 0.625C13.6454 0.625 13.0366 0.645577 11.1302 0.732568C9.2275 0.819346 7.92818 1.12154 6.79113 1.56345C5.61576 2.02019 4.61884 2.63139 3.62512 3.62512C2.63132 4.61891 2.02019 5.61576 1.56338 6.79113C1.12147 7.92818 0.819346 9.2275 0.732497 11.1302C0.645506 13.0367 0.625 13.6454 0.625 18.5C0.625 23.3546 0.645506 23.9633 0.732497 25.8698C0.819346 27.7724 1.12147 29.0718 1.56338 30.2088C2.02019 31.3842 2.63132 32.3811 3.62512 33.3748C4.61884 34.3686 5.61576 34.9797 6.79113 35.4366C7.92818 35.8785 9.2275 36.1807 11.1302 36.2675C13.0366 36.3544 13.6454 36.375 18.5 36.375C23.3546 36.375 23.9632 36.3544 25.8698 36.2675C27.7724 36.1807 29.0718 35.8785 30.2088 35.4366C31.3842 34.9797 32.3811 34.3686 33.3748 33.3748C34.3686 32.3811 34.9797 31.3842 35.4366 30.2088C35.8785 29.0718 36.1807 27.7724 36.2674 25.8698C36.3544 23.9633 36.375 23.3546 36.375 18.5C36.375 13.6454 36.3544 13.0367 36.2674 11.1302C36.1807 9.2275 35.8785 7.92818 35.4366 6.79113C34.9797 5.61576 34.3686 4.61891 33.3748 3.62512C32.3811 2.63139 31.3842 2.02019 30.2088 1.56345C29.0718 1.12154 27.7724 0.819346 25.8698 0.732568C23.9632 0.645577 23.3546 0.625 18.5 0.625ZM18.5 3.84572L20.2493 3.84688C22.5566 3.85058 23.5366 3.86391 24.511 3.89876L24.8374 3.91119C25.1122 3.92224 25.398 3.93505 25.723 3.94988C27.4658 4.02942 28.4122 4.32062 29.0421 4.56541C29.8764 4.88967 30.472 5.27702 31.0974 5.90249C31.7229 6.52802 32.1103 7.12348 32.4346 7.95784C32.6793 8.5877 32.9705 9.53417 33.0501 11.277C33.0649 11.6019 33.0777 11.8877 33.0887 12.1625L33.1011 12.4889L33.112 12.8158C33.1388 13.6975 33.1497 14.6997 33.153 16.7507V20.2493C33.1497 22.3002 33.1388 23.3025 33.112 24.1842L33.1011 24.511L33.0887 24.8374C33.0777 25.1123 33.0649 25.398 33.0501 25.723C32.9705 27.4658 32.6793 28.4123 32.4346 29.0422C32.1103 29.8765 31.7229 30.472 31.0974 31.0974C30.472 31.723 29.8764 32.1103 29.0421 32.4346C28.4122 32.6793 27.4658 32.9706 25.723 33.0501C24.0983 33.1242 23.4542 33.148 20.2494 33.1531L18.979 33.1542C18.8241 33.1543 18.6646 33.1543 18.5 33.1543L16.7505 33.1531C13.5457 33.148 12.9016 33.1242 11.277 33.0501C9.53417 32.9706 8.58763 32.6793 7.95777 32.4346C7.12348 32.1103 6.52795 31.723 5.90249 31.0974C5.27702 30.472 4.8896 29.8765 4.56534 29.0422C4.32062 28.4123 4.02942 27.4658 3.94988 25.723C3.93505 25.3981 3.92224 25.1123 3.91119 24.8375L3.89876 24.511C3.86391 23.5366 3.85058 22.5566 3.84688 20.2493L3.84578 18.9789C3.84574 18.8241 3.84572 18.6645 3.84572 18.5L3.84688 16.7507C3.85058 14.4434 3.86391 13.4634 3.89876 12.4889L3.91119 12.1625C3.92224 11.8877 3.93505 11.6019 3.94988 11.277C4.02942 9.53417 4.32062 8.5877 4.56534 7.95784C4.8896 7.12348 5.27702 6.52802 5.90249 5.90256C6.52795 5.27702 7.12348 4.88967 7.95777 4.56541C8.58763 4.32062 9.53417 4.02942 11.2769 3.94988C12.9018 3.87574 13.5461 3.85202 16.7506 3.84688L18.021 3.84578C18.1758 3.84574 18.3354 3.84572 18.5 3.84572ZM18.5 9.32095C13.4305 9.32095 9.32088 13.4305 9.32088 18.5C9.32088 23.5695 13.4305 27.679 18.5 27.679C23.5694 27.679 27.679 23.5695 27.679 18.5C27.679 13.4305 23.5694 9.32095 18.5 9.32095ZM18.5 12.5417C21.7906 12.5417 24.4583 15.2093 24.4583 18.5C24.4583 21.7906 21.7906 24.4583 18.5 24.4583C15.2093 24.4583 12.5416 21.7906 12.5416 18.5C12.5416 15.2093 15.2093 12.5417 18.5 12.5417ZM28.0417 6.81332C26.857 6.81332 25.8967 7.77362 25.8967 8.95829C25.8967 10.143 26.857 11.1033 28.0417 11.1033C29.2264 11.1033 30.1867 10.143 30.1867 8.95829C30.1867 7.77362 29.2264 6.81332 28.0417 6.81332Z" fill="white"/>
</svg>
