<svg width="38" height="32" viewBox="0 0 38 32" fill="none" xmlns="http://www.w3.org/2000/svg">
<path d="M37.375 4.52603C35.9951 5.14115 34.5179 5.55784 32.9825 5.75627C34.5568 4.78398 35.7813 3.25611 36.3449 1.45043C34.8678 2.34335 33.2157 2.99815 31.486 3.33548C30.0866 1.82744 28.1041 0.875 25.8885 0.875C21.6515 0.875 18.2308 4.36729 18.2308 8.67312C18.2308 9.28824 18.2891 9.88352 18.4251 10.4391C12.0502 10.1216 6.41381 7.00635 2.62383 2.30366C1.96301 3.45453 1.59373 4.78398 1.59373 6.21264C1.59373 8.91123 2.95424 11.3122 4.995 12.7012C3.73167 12.6615 2.56552 12.3043 1.51599 11.7289V11.8281C1.51599 15.5982 4.15926 18.7531 7.6577 19.4675C7.01632 19.646 6.33606 19.7453 5.63638 19.7453C5.15048 19.7453 4.66459 19.7056 4.19813 19.6064C5.16992 22.7018 8.00754 24.9639 11.3505 25.0234C8.72666 27.1068 5.42258 28.3569 1.82696 28.3569C1.20502 28.3569 0.602509 28.3172 0 28.2379C3.40126 30.4602 7.42447 31.75 11.7392 31.75C25.8301 31.75 33.5462 19.8643 33.5462 9.56603C33.5462 9.22871 33.5462 8.89139 33.5267 8.55406C35.0427 7.46272 36.3449 6.09359 37.375 4.52603Z" fill="white"/>
</svg>
